<mxfile host="app.diagrams.net" agent="Mozilla/5.0 (X11; Linux x86_64) AppleWebKit/537.36 (KHTML, like Gecko) Chrome/125.0.0.0 Safari/537.36" version="24.7.8">
  <diagram name="第 1 页" id="6t1M4FmkgAFwAZJi4hFe">
    <mxGraphModel dx="2052" dy="1044" grid="1" gridSize="10" guides="1" tooltips="1" connect="1" arrows="1" fold="1" page="1" pageScale="1" pageWidth="827" pageHeight="1169" math="0" shadow="0">
      <root>
        <mxCell id="0" />
        <mxCell id="1" parent="0" />
        <mxCell id="RB8xPHDvJfS-Jv2ElMEI-427" value="" style="rounded=0;whiteSpace=wrap;html=1;" vertex="1" parent="1">
          <mxGeometry x="240" y="426" width="1530" height="974" as="geometry" />
        </mxCell>
        <mxCell id="RB8xPHDvJfS-Jv2ElMEI-424" value="" style="endArrow=classic;html=1;rounded=0;exitX=0.802;exitY=1.012;exitDx=0;exitDy=0;exitPerimeter=0;" edge="1" parent="1" source="RB8xPHDvJfS-Jv2ElMEI-55">
          <mxGeometry width="50" height="50" relative="1" as="geometry">
            <mxPoint x="900" y="740" as="sourcePoint" />
            <mxPoint x="682" y="950" as="targetPoint" />
          </mxGeometry>
        </mxCell>
        <mxCell id="RB8xPHDvJfS-Jv2ElMEI-405" value="" style="rounded=0;whiteSpace=wrap;html=1;fillColor=none;dashed=1;" vertex="1" parent="1">
          <mxGeometry x="1031" y="1200" width="659" height="180" as="geometry" />
        </mxCell>
        <mxCell id="RB8xPHDvJfS-Jv2ElMEI-357" value="" style="rounded=0;whiteSpace=wrap;html=1;dashed=1;fillColor=none;" vertex="1" parent="1">
          <mxGeometry x="295" y="1200" width="692" height="180" as="geometry" />
        </mxCell>
        <mxCell id="RB8xPHDvJfS-Jv2ElMEI-103" value="" style="endArrow=classic;html=1;rounded=0;exitX=1;exitY=0.5;exitDx=0;exitDy=0;dashed=1;" edge="1" parent="1" source="RB8xPHDvJfS-Jv2ElMEI-134">
          <mxGeometry width="50" height="50" relative="1" as="geometry">
            <mxPoint x="620" y="686" as="sourcePoint" />
            <mxPoint x="1060" y="536" as="targetPoint" />
          </mxGeometry>
        </mxCell>
        <mxCell id="RB8xPHDvJfS-Jv2ElMEI-30" value="" style="shape=table;startSize=0;container=1;collapsible=0;childLayout=tableLayout;fontSize=16;fillColor=#ffe6cc;strokeColor=#d79b00;" vertex="1" parent="1">
          <mxGeometry x="338" y="650" width="130" height="100" as="geometry" />
        </mxCell>
        <mxCell id="RB8xPHDvJfS-Jv2ElMEI-31" value="" style="shape=tableRow;horizontal=0;startSize=0;swimlaneHead=0;swimlaneBody=0;strokeColor=inherit;top=0;left=0;bottom=0;right=0;collapsible=0;dropTarget=0;fillColor=none;points=[[0,0.5],[1,0.5]];portConstraint=eastwest;fontSize=16;" vertex="1" parent="RB8xPHDvJfS-Jv2ElMEI-30">
          <mxGeometry width="130" height="33" as="geometry" />
        </mxCell>
        <mxCell id="RB8xPHDvJfS-Jv2ElMEI-32" value="" style="shape=partialRectangle;html=1;whiteSpace=wrap;connectable=0;strokeColor=inherit;overflow=hidden;fillColor=none;top=0;left=0;bottom=0;right=0;pointerEvents=1;fontSize=16;" vertex="1" parent="RB8xPHDvJfS-Jv2ElMEI-31">
          <mxGeometry width="43" height="33" as="geometry">
            <mxRectangle width="43" height="33" as="alternateBounds" />
          </mxGeometry>
        </mxCell>
        <mxCell id="RB8xPHDvJfS-Jv2ElMEI-33" value="" style="shape=partialRectangle;html=1;whiteSpace=wrap;connectable=0;strokeColor=inherit;overflow=hidden;fillColor=none;top=0;left=0;bottom=0;right=0;pointerEvents=1;fontSize=16;" vertex="1" parent="RB8xPHDvJfS-Jv2ElMEI-31">
          <mxGeometry x="43" width="44" height="33" as="geometry">
            <mxRectangle width="44" height="33" as="alternateBounds" />
          </mxGeometry>
        </mxCell>
        <mxCell id="RB8xPHDvJfS-Jv2ElMEI-34" value="" style="shape=partialRectangle;html=1;whiteSpace=wrap;connectable=0;strokeColor=inherit;overflow=hidden;fillColor=none;top=0;left=0;bottom=0;right=0;pointerEvents=1;fontSize=16;" vertex="1" parent="RB8xPHDvJfS-Jv2ElMEI-31">
          <mxGeometry x="87" width="43" height="33" as="geometry">
            <mxRectangle width="43" height="33" as="alternateBounds" />
          </mxGeometry>
        </mxCell>
        <mxCell id="RB8xPHDvJfS-Jv2ElMEI-35" value="" style="shape=tableRow;horizontal=0;startSize=0;swimlaneHead=0;swimlaneBody=0;strokeColor=inherit;top=0;left=0;bottom=0;right=0;collapsible=0;dropTarget=0;fillColor=none;points=[[0,0.5],[1,0.5]];portConstraint=eastwest;fontSize=16;" vertex="1" parent="RB8xPHDvJfS-Jv2ElMEI-30">
          <mxGeometry y="33" width="130" height="34" as="geometry" />
        </mxCell>
        <mxCell id="RB8xPHDvJfS-Jv2ElMEI-36" value="" style="shape=partialRectangle;html=1;whiteSpace=wrap;connectable=0;strokeColor=inherit;overflow=hidden;fillColor=none;top=0;left=0;bottom=0;right=0;pointerEvents=1;fontSize=16;" vertex="1" parent="RB8xPHDvJfS-Jv2ElMEI-35">
          <mxGeometry width="43" height="34" as="geometry">
            <mxRectangle width="43" height="34" as="alternateBounds" />
          </mxGeometry>
        </mxCell>
        <mxCell id="RB8xPHDvJfS-Jv2ElMEI-37" value="" style="shape=partialRectangle;html=1;whiteSpace=wrap;connectable=0;strokeColor=inherit;overflow=hidden;fillColor=none;top=0;left=0;bottom=0;right=0;pointerEvents=1;fontSize=16;" vertex="1" parent="RB8xPHDvJfS-Jv2ElMEI-35">
          <mxGeometry x="43" width="44" height="34" as="geometry">
            <mxRectangle width="44" height="34" as="alternateBounds" />
          </mxGeometry>
        </mxCell>
        <mxCell id="RB8xPHDvJfS-Jv2ElMEI-38" value="" style="shape=partialRectangle;html=1;whiteSpace=wrap;connectable=0;strokeColor=inherit;overflow=hidden;fillColor=none;top=0;left=0;bottom=0;right=0;pointerEvents=1;fontSize=16;" vertex="1" parent="RB8xPHDvJfS-Jv2ElMEI-35">
          <mxGeometry x="87" width="43" height="34" as="geometry">
            <mxRectangle width="43" height="34" as="alternateBounds" />
          </mxGeometry>
        </mxCell>
        <mxCell id="RB8xPHDvJfS-Jv2ElMEI-39" value="" style="shape=tableRow;horizontal=0;startSize=0;swimlaneHead=0;swimlaneBody=0;strokeColor=inherit;top=0;left=0;bottom=0;right=0;collapsible=0;dropTarget=0;fillColor=none;points=[[0,0.5],[1,0.5]];portConstraint=eastwest;fontSize=16;" vertex="1" parent="RB8xPHDvJfS-Jv2ElMEI-30">
          <mxGeometry y="67" width="130" height="33" as="geometry" />
        </mxCell>
        <mxCell id="RB8xPHDvJfS-Jv2ElMEI-40" value="" style="shape=partialRectangle;html=1;whiteSpace=wrap;connectable=0;strokeColor=inherit;overflow=hidden;fillColor=none;top=0;left=0;bottom=0;right=0;pointerEvents=1;fontSize=16;" vertex="1" parent="RB8xPHDvJfS-Jv2ElMEI-39">
          <mxGeometry width="43" height="33" as="geometry">
            <mxRectangle width="43" height="33" as="alternateBounds" />
          </mxGeometry>
        </mxCell>
        <mxCell id="RB8xPHDvJfS-Jv2ElMEI-41" value="" style="shape=partialRectangle;html=1;whiteSpace=wrap;connectable=0;strokeColor=inherit;overflow=hidden;fillColor=none;top=0;left=0;bottom=0;right=0;pointerEvents=1;fontSize=16;" vertex="1" parent="RB8xPHDvJfS-Jv2ElMEI-39">
          <mxGeometry x="43" width="44" height="33" as="geometry">
            <mxRectangle width="44" height="33" as="alternateBounds" />
          </mxGeometry>
        </mxCell>
        <mxCell id="RB8xPHDvJfS-Jv2ElMEI-42" value="" style="shape=partialRectangle;html=1;whiteSpace=wrap;connectable=0;strokeColor=inherit;overflow=hidden;fillColor=none;top=0;left=0;bottom=0;right=0;pointerEvents=1;fontSize=16;" vertex="1" parent="RB8xPHDvJfS-Jv2ElMEI-39">
          <mxGeometry x="87" width="43" height="33" as="geometry">
            <mxRectangle width="43" height="33" as="alternateBounds" />
          </mxGeometry>
        </mxCell>
        <mxCell id="RB8xPHDvJfS-Jv2ElMEI-43" value="&lt;b&gt;Are&lt;/b&gt;" style="text;html=1;align=center;verticalAlign=middle;whiteSpace=wrap;rounded=0;" vertex="1" parent="1">
          <mxGeometry x="258" y="650" width="60" height="30" as="geometry" />
        </mxCell>
        <mxCell id="RB8xPHDvJfS-Jv2ElMEI-44" value="&lt;b&gt;you&lt;/b&gt;" style="text;html=1;align=center;verticalAlign=middle;whiteSpace=wrap;rounded=0;" vertex="1" parent="1">
          <mxGeometry x="258" y="685" width="60" height="30" as="geometry" />
        </mxCell>
        <mxCell id="RB8xPHDvJfS-Jv2ElMEI-46" value="" style="shape=table;startSize=0;container=1;collapsible=0;childLayout=tableLayout;fontSize=16;fillColor=#dae8fc;strokeColor=#6c8ebf;" vertex="1" parent="1">
          <mxGeometry x="575" y="486" width="130" height="100" as="geometry" />
        </mxCell>
        <mxCell id="RB8xPHDvJfS-Jv2ElMEI-47" value="" style="shape=tableRow;horizontal=0;startSize=0;swimlaneHead=0;swimlaneBody=0;strokeColor=inherit;top=0;left=0;bottom=0;right=0;collapsible=0;dropTarget=0;fillColor=none;points=[[0,0.5],[1,0.5]];portConstraint=eastwest;fontSize=16;" vertex="1" parent="RB8xPHDvJfS-Jv2ElMEI-46">
          <mxGeometry width="130" height="33" as="geometry" />
        </mxCell>
        <mxCell id="RB8xPHDvJfS-Jv2ElMEI-48" value="" style="shape=partialRectangle;html=1;whiteSpace=wrap;connectable=0;strokeColor=inherit;overflow=hidden;fillColor=none;top=0;left=0;bottom=0;right=0;pointerEvents=1;fontSize=16;" vertex="1" parent="RB8xPHDvJfS-Jv2ElMEI-47">
          <mxGeometry width="43" height="33" as="geometry">
            <mxRectangle width="43" height="33" as="alternateBounds" />
          </mxGeometry>
        </mxCell>
        <mxCell id="RB8xPHDvJfS-Jv2ElMEI-49" value="" style="shape=partialRectangle;html=1;whiteSpace=wrap;connectable=0;strokeColor=inherit;overflow=hidden;fillColor=none;top=0;left=0;bottom=0;right=0;pointerEvents=1;fontSize=16;" vertex="1" parent="RB8xPHDvJfS-Jv2ElMEI-47">
          <mxGeometry x="43" width="44" height="33" as="geometry">
            <mxRectangle width="44" height="33" as="alternateBounds" />
          </mxGeometry>
        </mxCell>
        <mxCell id="RB8xPHDvJfS-Jv2ElMEI-50" value="" style="shape=partialRectangle;html=1;whiteSpace=wrap;connectable=0;strokeColor=inherit;overflow=hidden;fillColor=none;top=0;left=0;bottom=0;right=0;pointerEvents=1;fontSize=16;" vertex="1" parent="RB8xPHDvJfS-Jv2ElMEI-47">
          <mxGeometry x="87" width="43" height="33" as="geometry">
            <mxRectangle width="43" height="33" as="alternateBounds" />
          </mxGeometry>
        </mxCell>
        <mxCell id="RB8xPHDvJfS-Jv2ElMEI-51" value="" style="shape=tableRow;horizontal=0;startSize=0;swimlaneHead=0;swimlaneBody=0;strokeColor=inherit;top=0;left=0;bottom=0;right=0;collapsible=0;dropTarget=0;fillColor=none;points=[[0,0.5],[1,0.5]];portConstraint=eastwest;fontSize=16;" vertex="1" parent="RB8xPHDvJfS-Jv2ElMEI-46">
          <mxGeometry y="33" width="130" height="34" as="geometry" />
        </mxCell>
        <mxCell id="RB8xPHDvJfS-Jv2ElMEI-52" value="" style="shape=partialRectangle;html=1;whiteSpace=wrap;connectable=0;strokeColor=inherit;overflow=hidden;fillColor=none;top=0;left=0;bottom=0;right=0;pointerEvents=1;fontSize=16;" vertex="1" parent="RB8xPHDvJfS-Jv2ElMEI-51">
          <mxGeometry width="43" height="34" as="geometry">
            <mxRectangle width="43" height="34" as="alternateBounds" />
          </mxGeometry>
        </mxCell>
        <mxCell id="RB8xPHDvJfS-Jv2ElMEI-53" value="&lt;b&gt;&lt;font style=&quot;font-size: 17px;&quot;&gt;W_q&lt;/font&gt;&lt;/b&gt;" style="shape=partialRectangle;html=1;whiteSpace=wrap;connectable=0;strokeColor=inherit;overflow=hidden;fillColor=none;top=0;left=0;bottom=0;right=0;pointerEvents=1;fontSize=16;" vertex="1" parent="RB8xPHDvJfS-Jv2ElMEI-51">
          <mxGeometry x="43" width="44" height="34" as="geometry">
            <mxRectangle width="44" height="34" as="alternateBounds" />
          </mxGeometry>
        </mxCell>
        <mxCell id="RB8xPHDvJfS-Jv2ElMEI-54" value="" style="shape=partialRectangle;html=1;whiteSpace=wrap;connectable=0;strokeColor=inherit;overflow=hidden;fillColor=none;top=0;left=0;bottom=0;right=0;pointerEvents=1;fontSize=16;" vertex="1" parent="RB8xPHDvJfS-Jv2ElMEI-51">
          <mxGeometry x="87" width="43" height="34" as="geometry">
            <mxRectangle width="43" height="34" as="alternateBounds" />
          </mxGeometry>
        </mxCell>
        <mxCell id="RB8xPHDvJfS-Jv2ElMEI-55" value="" style="shape=tableRow;horizontal=0;startSize=0;swimlaneHead=0;swimlaneBody=0;strokeColor=inherit;top=0;left=0;bottom=0;right=0;collapsible=0;dropTarget=0;fillColor=none;points=[[0,0.5],[1,0.5]];portConstraint=eastwest;fontSize=16;" vertex="1" parent="RB8xPHDvJfS-Jv2ElMEI-46">
          <mxGeometry y="67" width="130" height="33" as="geometry" />
        </mxCell>
        <mxCell id="RB8xPHDvJfS-Jv2ElMEI-56" value="" style="shape=partialRectangle;html=1;whiteSpace=wrap;connectable=0;strokeColor=inherit;overflow=hidden;fillColor=none;top=0;left=0;bottom=0;right=0;pointerEvents=1;fontSize=16;" vertex="1" parent="RB8xPHDvJfS-Jv2ElMEI-55">
          <mxGeometry width="43" height="33" as="geometry">
            <mxRectangle width="43" height="33" as="alternateBounds" />
          </mxGeometry>
        </mxCell>
        <mxCell id="RB8xPHDvJfS-Jv2ElMEI-57" value="" style="shape=partialRectangle;html=1;whiteSpace=wrap;connectable=0;strokeColor=inherit;overflow=hidden;fillColor=none;top=0;left=0;bottom=0;right=0;pointerEvents=1;fontSize=16;" vertex="1" parent="RB8xPHDvJfS-Jv2ElMEI-55">
          <mxGeometry x="43" width="44" height="33" as="geometry">
            <mxRectangle width="44" height="33" as="alternateBounds" />
          </mxGeometry>
        </mxCell>
        <mxCell id="RB8xPHDvJfS-Jv2ElMEI-58" value="" style="shape=partialRectangle;html=1;whiteSpace=wrap;connectable=0;strokeColor=inherit;overflow=hidden;fillColor=none;top=0;left=0;bottom=0;right=0;pointerEvents=1;fontSize=16;" vertex="1" parent="RB8xPHDvJfS-Jv2ElMEI-55">
          <mxGeometry x="87" width="43" height="33" as="geometry">
            <mxRectangle width="43" height="33" as="alternateBounds" />
          </mxGeometry>
        </mxCell>
        <mxCell id="RB8xPHDvJfS-Jv2ElMEI-59" value="" style="shape=table;startSize=0;container=1;collapsible=0;childLayout=tableLayout;fontSize=16;fillColor=#f8cecc;strokeColor=#b85450;" vertex="1" parent="1">
          <mxGeometry x="740" y="486" width="130" height="100" as="geometry" />
        </mxCell>
        <mxCell id="RB8xPHDvJfS-Jv2ElMEI-60" value="" style="shape=tableRow;horizontal=0;startSize=0;swimlaneHead=0;swimlaneBody=0;strokeColor=inherit;top=0;left=0;bottom=0;right=0;collapsible=0;dropTarget=0;fillColor=none;points=[[0,0.5],[1,0.5]];portConstraint=eastwest;fontSize=16;" vertex="1" parent="RB8xPHDvJfS-Jv2ElMEI-59">
          <mxGeometry width="130" height="33" as="geometry" />
        </mxCell>
        <mxCell id="RB8xPHDvJfS-Jv2ElMEI-61" value="" style="shape=partialRectangle;html=1;whiteSpace=wrap;connectable=0;strokeColor=inherit;overflow=hidden;fillColor=none;top=0;left=0;bottom=0;right=0;pointerEvents=1;fontSize=16;" vertex="1" parent="RB8xPHDvJfS-Jv2ElMEI-60">
          <mxGeometry width="43" height="33" as="geometry">
            <mxRectangle width="43" height="33" as="alternateBounds" />
          </mxGeometry>
        </mxCell>
        <mxCell id="RB8xPHDvJfS-Jv2ElMEI-62" value="" style="shape=partialRectangle;html=1;whiteSpace=wrap;connectable=0;strokeColor=inherit;overflow=hidden;fillColor=none;top=0;left=0;bottom=0;right=0;pointerEvents=1;fontSize=16;" vertex="1" parent="RB8xPHDvJfS-Jv2ElMEI-60">
          <mxGeometry x="43" width="44" height="33" as="geometry">
            <mxRectangle width="44" height="33" as="alternateBounds" />
          </mxGeometry>
        </mxCell>
        <mxCell id="RB8xPHDvJfS-Jv2ElMEI-63" value="" style="shape=partialRectangle;html=1;whiteSpace=wrap;connectable=0;strokeColor=inherit;overflow=hidden;fillColor=none;top=0;left=0;bottom=0;right=0;pointerEvents=1;fontSize=16;" vertex="1" parent="RB8xPHDvJfS-Jv2ElMEI-60">
          <mxGeometry x="87" width="43" height="33" as="geometry">
            <mxRectangle width="43" height="33" as="alternateBounds" />
          </mxGeometry>
        </mxCell>
        <mxCell id="RB8xPHDvJfS-Jv2ElMEI-64" value="" style="shape=tableRow;horizontal=0;startSize=0;swimlaneHead=0;swimlaneBody=0;strokeColor=inherit;top=0;left=0;bottom=0;right=0;collapsible=0;dropTarget=0;fillColor=none;points=[[0,0.5],[1,0.5]];portConstraint=eastwest;fontSize=16;" vertex="1" parent="RB8xPHDvJfS-Jv2ElMEI-59">
          <mxGeometry y="33" width="130" height="34" as="geometry" />
        </mxCell>
        <mxCell id="RB8xPHDvJfS-Jv2ElMEI-65" value="" style="shape=partialRectangle;html=1;whiteSpace=wrap;connectable=0;strokeColor=inherit;overflow=hidden;fillColor=none;top=0;left=0;bottom=0;right=0;pointerEvents=1;fontSize=16;" vertex="1" parent="RB8xPHDvJfS-Jv2ElMEI-64">
          <mxGeometry width="43" height="34" as="geometry">
            <mxRectangle width="43" height="34" as="alternateBounds" />
          </mxGeometry>
        </mxCell>
        <mxCell id="RB8xPHDvJfS-Jv2ElMEI-66" value="&lt;b&gt;&lt;font style=&quot;font-size: 18px;&quot;&gt;W_k&lt;/font&gt;&lt;/b&gt;" style="shape=partialRectangle;html=1;whiteSpace=wrap;connectable=0;strokeColor=inherit;overflow=hidden;fillColor=none;top=0;left=0;bottom=0;right=0;pointerEvents=1;fontSize=16;" vertex="1" parent="RB8xPHDvJfS-Jv2ElMEI-64">
          <mxGeometry x="43" width="44" height="34" as="geometry">
            <mxRectangle width="44" height="34" as="alternateBounds" />
          </mxGeometry>
        </mxCell>
        <mxCell id="RB8xPHDvJfS-Jv2ElMEI-67" value="" style="shape=partialRectangle;html=1;whiteSpace=wrap;connectable=0;strokeColor=inherit;overflow=hidden;fillColor=none;top=0;left=0;bottom=0;right=0;pointerEvents=1;fontSize=16;" vertex="1" parent="RB8xPHDvJfS-Jv2ElMEI-64">
          <mxGeometry x="87" width="43" height="34" as="geometry">
            <mxRectangle width="43" height="34" as="alternateBounds" />
          </mxGeometry>
        </mxCell>
        <mxCell id="RB8xPHDvJfS-Jv2ElMEI-68" value="" style="shape=tableRow;horizontal=0;startSize=0;swimlaneHead=0;swimlaneBody=0;strokeColor=inherit;top=0;left=0;bottom=0;right=0;collapsible=0;dropTarget=0;fillColor=none;points=[[0,0.5],[1,0.5]];portConstraint=eastwest;fontSize=16;" vertex="1" parent="RB8xPHDvJfS-Jv2ElMEI-59">
          <mxGeometry y="67" width="130" height="33" as="geometry" />
        </mxCell>
        <mxCell id="RB8xPHDvJfS-Jv2ElMEI-69" value="" style="shape=partialRectangle;html=1;whiteSpace=wrap;connectable=0;strokeColor=inherit;overflow=hidden;fillColor=none;top=0;left=0;bottom=0;right=0;pointerEvents=1;fontSize=16;" vertex="1" parent="RB8xPHDvJfS-Jv2ElMEI-68">
          <mxGeometry width="43" height="33" as="geometry">
            <mxRectangle width="43" height="33" as="alternateBounds" />
          </mxGeometry>
        </mxCell>
        <mxCell id="RB8xPHDvJfS-Jv2ElMEI-70" value="" style="shape=partialRectangle;html=1;whiteSpace=wrap;connectable=0;strokeColor=inherit;overflow=hidden;fillColor=none;top=0;left=0;bottom=0;right=0;pointerEvents=1;fontSize=16;" vertex="1" parent="RB8xPHDvJfS-Jv2ElMEI-68">
          <mxGeometry x="43" width="44" height="33" as="geometry">
            <mxRectangle width="44" height="33" as="alternateBounds" />
          </mxGeometry>
        </mxCell>
        <mxCell id="RB8xPHDvJfS-Jv2ElMEI-71" value="" style="shape=partialRectangle;html=1;whiteSpace=wrap;connectable=0;strokeColor=inherit;overflow=hidden;fillColor=none;top=0;left=0;bottom=0;right=0;pointerEvents=1;fontSize=16;" vertex="1" parent="RB8xPHDvJfS-Jv2ElMEI-68">
          <mxGeometry x="87" width="43" height="33" as="geometry">
            <mxRectangle width="43" height="33" as="alternateBounds" />
          </mxGeometry>
        </mxCell>
        <mxCell id="RB8xPHDvJfS-Jv2ElMEI-72" value="" style="shape=table;startSize=0;container=1;collapsible=0;childLayout=tableLayout;fontSize=16;fillColor=#d5e8d4;strokeColor=#82b366;" vertex="1" parent="1">
          <mxGeometry x="900" y="486" width="130" height="100" as="geometry" />
        </mxCell>
        <mxCell id="RB8xPHDvJfS-Jv2ElMEI-73" value="" style="shape=tableRow;horizontal=0;startSize=0;swimlaneHead=0;swimlaneBody=0;strokeColor=inherit;top=0;left=0;bottom=0;right=0;collapsible=0;dropTarget=0;fillColor=none;points=[[0,0.5],[1,0.5]];portConstraint=eastwest;fontSize=16;" vertex="1" parent="RB8xPHDvJfS-Jv2ElMEI-72">
          <mxGeometry width="130" height="33" as="geometry" />
        </mxCell>
        <mxCell id="RB8xPHDvJfS-Jv2ElMEI-74" value="" style="shape=partialRectangle;html=1;whiteSpace=wrap;connectable=0;strokeColor=inherit;overflow=hidden;fillColor=none;top=0;left=0;bottom=0;right=0;pointerEvents=1;fontSize=16;" vertex="1" parent="RB8xPHDvJfS-Jv2ElMEI-73">
          <mxGeometry width="43" height="33" as="geometry">
            <mxRectangle width="43" height="33" as="alternateBounds" />
          </mxGeometry>
        </mxCell>
        <mxCell id="RB8xPHDvJfS-Jv2ElMEI-75" value="" style="shape=partialRectangle;html=1;whiteSpace=wrap;connectable=0;strokeColor=inherit;overflow=hidden;fillColor=none;top=0;left=0;bottom=0;right=0;pointerEvents=1;fontSize=16;" vertex="1" parent="RB8xPHDvJfS-Jv2ElMEI-73">
          <mxGeometry x="43" width="44" height="33" as="geometry">
            <mxRectangle width="44" height="33" as="alternateBounds" />
          </mxGeometry>
        </mxCell>
        <mxCell id="RB8xPHDvJfS-Jv2ElMEI-76" value="" style="shape=partialRectangle;html=1;whiteSpace=wrap;connectable=0;strokeColor=inherit;overflow=hidden;fillColor=none;top=0;left=0;bottom=0;right=0;pointerEvents=1;fontSize=16;" vertex="1" parent="RB8xPHDvJfS-Jv2ElMEI-73">
          <mxGeometry x="87" width="43" height="33" as="geometry">
            <mxRectangle width="43" height="33" as="alternateBounds" />
          </mxGeometry>
        </mxCell>
        <mxCell id="RB8xPHDvJfS-Jv2ElMEI-77" value="" style="shape=tableRow;horizontal=0;startSize=0;swimlaneHead=0;swimlaneBody=0;strokeColor=inherit;top=0;left=0;bottom=0;right=0;collapsible=0;dropTarget=0;fillColor=none;points=[[0,0.5],[1,0.5]];portConstraint=eastwest;fontSize=16;" vertex="1" parent="RB8xPHDvJfS-Jv2ElMEI-72">
          <mxGeometry y="33" width="130" height="34" as="geometry" />
        </mxCell>
        <mxCell id="RB8xPHDvJfS-Jv2ElMEI-78" value="" style="shape=partialRectangle;html=1;whiteSpace=wrap;connectable=0;strokeColor=inherit;overflow=hidden;fillColor=none;top=0;left=0;bottom=0;right=0;pointerEvents=1;fontSize=16;" vertex="1" parent="RB8xPHDvJfS-Jv2ElMEI-77">
          <mxGeometry width="43" height="34" as="geometry">
            <mxRectangle width="43" height="34" as="alternateBounds" />
          </mxGeometry>
        </mxCell>
        <mxCell id="RB8xPHDvJfS-Jv2ElMEI-79" value="&lt;b&gt;&lt;font style=&quot;font-size: 18px;&quot;&gt;W_v&lt;/font&gt;&lt;/b&gt;" style="shape=partialRectangle;html=1;whiteSpace=wrap;connectable=0;strokeColor=inherit;overflow=hidden;fillColor=none;top=0;left=0;bottom=0;right=0;pointerEvents=1;fontSize=16;" vertex="1" parent="RB8xPHDvJfS-Jv2ElMEI-77">
          <mxGeometry x="43" width="44" height="34" as="geometry">
            <mxRectangle width="44" height="34" as="alternateBounds" />
          </mxGeometry>
        </mxCell>
        <mxCell id="RB8xPHDvJfS-Jv2ElMEI-80" value="" style="shape=partialRectangle;html=1;whiteSpace=wrap;connectable=0;strokeColor=inherit;overflow=hidden;fillColor=none;top=0;left=0;bottom=0;right=0;pointerEvents=1;fontSize=16;" vertex="1" parent="RB8xPHDvJfS-Jv2ElMEI-77">
          <mxGeometry x="87" width="43" height="34" as="geometry">
            <mxRectangle width="43" height="34" as="alternateBounds" />
          </mxGeometry>
        </mxCell>
        <mxCell id="RB8xPHDvJfS-Jv2ElMEI-81" value="" style="shape=tableRow;horizontal=0;startSize=0;swimlaneHead=0;swimlaneBody=0;strokeColor=inherit;top=0;left=0;bottom=0;right=0;collapsible=0;dropTarget=0;fillColor=none;points=[[0,0.5],[1,0.5]];portConstraint=eastwest;fontSize=16;" vertex="1" parent="RB8xPHDvJfS-Jv2ElMEI-72">
          <mxGeometry y="67" width="130" height="33" as="geometry" />
        </mxCell>
        <mxCell id="RB8xPHDvJfS-Jv2ElMEI-82" value="" style="shape=partialRectangle;html=1;whiteSpace=wrap;connectable=0;strokeColor=inherit;overflow=hidden;fillColor=none;top=0;left=0;bottom=0;right=0;pointerEvents=1;fontSize=16;" vertex="1" parent="RB8xPHDvJfS-Jv2ElMEI-81">
          <mxGeometry width="43" height="33" as="geometry">
            <mxRectangle width="43" height="33" as="alternateBounds" />
          </mxGeometry>
        </mxCell>
        <mxCell id="RB8xPHDvJfS-Jv2ElMEI-83" value="" style="shape=partialRectangle;html=1;whiteSpace=wrap;connectable=0;strokeColor=inherit;overflow=hidden;fillColor=none;top=0;left=0;bottom=0;right=0;pointerEvents=1;fontSize=16;" vertex="1" parent="RB8xPHDvJfS-Jv2ElMEI-81">
          <mxGeometry x="43" width="44" height="33" as="geometry">
            <mxRectangle width="44" height="33" as="alternateBounds" />
          </mxGeometry>
        </mxCell>
        <mxCell id="RB8xPHDvJfS-Jv2ElMEI-84" value="" style="shape=partialRectangle;html=1;whiteSpace=wrap;connectable=0;strokeColor=inherit;overflow=hidden;fillColor=none;top=0;left=0;bottom=0;right=0;pointerEvents=1;fontSize=16;" vertex="1" parent="RB8xPHDvJfS-Jv2ElMEI-81">
          <mxGeometry x="87" width="43" height="33" as="geometry">
            <mxRectangle width="43" height="33" as="alternateBounds" />
          </mxGeometry>
        </mxCell>
        <mxCell id="RB8xPHDvJfS-Jv2ElMEI-85" value="&lt;font style=&quot;font-size: 16px;&quot;&gt;(seq_len , dim_em)&lt;/font&gt;" style="text;html=1;align=center;verticalAlign=middle;whiteSpace=wrap;rounded=0;" vertex="1" parent="1">
          <mxGeometry x="252" y="616" width="162" height="30" as="geometry" />
        </mxCell>
        <mxCell id="RB8xPHDvJfS-Jv2ElMEI-86" value="dim_em * dim_q" style="text;html=1;align=center;verticalAlign=middle;whiteSpace=wrap;rounded=0;" vertex="1" parent="1">
          <mxGeometry x="580" y="446" width="120" height="30" as="geometry" />
        </mxCell>
        <mxCell id="RB8xPHDvJfS-Jv2ElMEI-87" value="dim_em * dim_k" style="text;html=1;align=center;verticalAlign=middle;whiteSpace=wrap;rounded=0;" vertex="1" parent="1">
          <mxGeometry x="740" y="446" width="120" height="30" as="geometry" />
        </mxCell>
        <mxCell id="RB8xPHDvJfS-Jv2ElMEI-88" value="dim_em * dim_v" style="text;html=1;align=center;verticalAlign=middle;whiteSpace=wrap;rounded=0;" vertex="1" parent="1">
          <mxGeometry x="900" y="446" width="120" height="30" as="geometry" />
        </mxCell>
        <mxCell id="RB8xPHDvJfS-Jv2ElMEI-89" value="" style="shape=table;startSize=0;container=1;collapsible=0;childLayout=tableLayout;fontSize=16;fillColor=#dae8fc;strokeColor=#6c8ebf;" vertex="1" parent="1">
          <mxGeometry x="575" y="646" width="130" height="100" as="geometry" />
        </mxCell>
        <mxCell id="RB8xPHDvJfS-Jv2ElMEI-90" value="" style="shape=tableRow;horizontal=0;startSize=0;swimlaneHead=0;swimlaneBody=0;strokeColor=inherit;top=0;left=0;bottom=0;right=0;collapsible=0;dropTarget=0;fillColor=none;points=[[0,0.5],[1,0.5]];portConstraint=eastwest;fontSize=16;" vertex="1" parent="RB8xPHDvJfS-Jv2ElMEI-89">
          <mxGeometry width="130" height="33" as="geometry" />
        </mxCell>
        <mxCell id="RB8xPHDvJfS-Jv2ElMEI-91" value="" style="shape=partialRectangle;html=1;whiteSpace=wrap;connectable=0;strokeColor=inherit;overflow=hidden;fillColor=none;top=0;left=0;bottom=0;right=0;pointerEvents=1;fontSize=16;" vertex="1" parent="RB8xPHDvJfS-Jv2ElMEI-90">
          <mxGeometry width="43" height="33" as="geometry">
            <mxRectangle width="43" height="33" as="alternateBounds" />
          </mxGeometry>
        </mxCell>
        <mxCell id="RB8xPHDvJfS-Jv2ElMEI-92" value="" style="shape=partialRectangle;html=1;whiteSpace=wrap;connectable=0;strokeColor=inherit;overflow=hidden;fillColor=none;top=0;left=0;bottom=0;right=0;pointerEvents=1;fontSize=16;" vertex="1" parent="RB8xPHDvJfS-Jv2ElMEI-90">
          <mxGeometry x="43" width="44" height="33" as="geometry">
            <mxRectangle width="44" height="33" as="alternateBounds" />
          </mxGeometry>
        </mxCell>
        <mxCell id="RB8xPHDvJfS-Jv2ElMEI-93" value="" style="shape=partialRectangle;html=1;whiteSpace=wrap;connectable=0;strokeColor=inherit;overflow=hidden;fillColor=none;top=0;left=0;bottom=0;right=0;pointerEvents=1;fontSize=16;" vertex="1" parent="RB8xPHDvJfS-Jv2ElMEI-90">
          <mxGeometry x="87" width="43" height="33" as="geometry">
            <mxRectangle width="43" height="33" as="alternateBounds" />
          </mxGeometry>
        </mxCell>
        <mxCell id="RB8xPHDvJfS-Jv2ElMEI-94" value="" style="shape=tableRow;horizontal=0;startSize=0;swimlaneHead=0;swimlaneBody=0;strokeColor=inherit;top=0;left=0;bottom=0;right=0;collapsible=0;dropTarget=0;fillColor=none;points=[[0,0.5],[1,0.5]];portConstraint=eastwest;fontSize=16;" vertex="1" parent="RB8xPHDvJfS-Jv2ElMEI-89">
          <mxGeometry y="33" width="130" height="34" as="geometry" />
        </mxCell>
        <mxCell id="RB8xPHDvJfS-Jv2ElMEI-95" value="" style="shape=partialRectangle;html=1;whiteSpace=wrap;connectable=0;strokeColor=inherit;overflow=hidden;fillColor=none;top=0;left=0;bottom=0;right=0;pointerEvents=1;fontSize=16;" vertex="1" parent="RB8xPHDvJfS-Jv2ElMEI-94">
          <mxGeometry width="43" height="34" as="geometry">
            <mxRectangle width="43" height="34" as="alternateBounds" />
          </mxGeometry>
        </mxCell>
        <mxCell id="RB8xPHDvJfS-Jv2ElMEI-96" value="&lt;b&gt;&lt;font style=&quot;font-size: 18px;&quot;&gt;q&lt;/font&gt;&lt;/b&gt;" style="shape=partialRectangle;html=1;whiteSpace=wrap;connectable=0;strokeColor=inherit;overflow=hidden;fillColor=none;top=0;left=0;bottom=0;right=0;pointerEvents=1;fontSize=16;" vertex="1" parent="RB8xPHDvJfS-Jv2ElMEI-94">
          <mxGeometry x="43" width="44" height="34" as="geometry">
            <mxRectangle width="44" height="34" as="alternateBounds" />
          </mxGeometry>
        </mxCell>
        <mxCell id="RB8xPHDvJfS-Jv2ElMEI-97" value="" style="shape=partialRectangle;html=1;whiteSpace=wrap;connectable=0;strokeColor=inherit;overflow=hidden;fillColor=none;top=0;left=0;bottom=0;right=0;pointerEvents=1;fontSize=16;" vertex="1" parent="RB8xPHDvJfS-Jv2ElMEI-94">
          <mxGeometry x="87" width="43" height="34" as="geometry">
            <mxRectangle width="43" height="34" as="alternateBounds" />
          </mxGeometry>
        </mxCell>
        <mxCell id="RB8xPHDvJfS-Jv2ElMEI-98" value="" style="shape=tableRow;horizontal=0;startSize=0;swimlaneHead=0;swimlaneBody=0;strokeColor=inherit;top=0;left=0;bottom=0;right=0;collapsible=0;dropTarget=0;fillColor=none;points=[[0,0.5],[1,0.5]];portConstraint=eastwest;fontSize=16;" vertex="1" parent="RB8xPHDvJfS-Jv2ElMEI-89">
          <mxGeometry y="67" width="130" height="33" as="geometry" />
        </mxCell>
        <mxCell id="RB8xPHDvJfS-Jv2ElMEI-99" value="" style="shape=partialRectangle;html=1;whiteSpace=wrap;connectable=0;strokeColor=inherit;overflow=hidden;fillColor=none;top=0;left=0;bottom=0;right=0;pointerEvents=1;fontSize=16;" vertex="1" parent="RB8xPHDvJfS-Jv2ElMEI-98">
          <mxGeometry width="43" height="33" as="geometry">
            <mxRectangle width="43" height="33" as="alternateBounds" />
          </mxGeometry>
        </mxCell>
        <mxCell id="RB8xPHDvJfS-Jv2ElMEI-100" value="" style="shape=partialRectangle;html=1;whiteSpace=wrap;connectable=0;strokeColor=inherit;overflow=hidden;fillColor=none;top=0;left=0;bottom=0;right=0;pointerEvents=1;fontSize=16;" vertex="1" parent="RB8xPHDvJfS-Jv2ElMEI-98">
          <mxGeometry x="43" width="44" height="33" as="geometry">
            <mxRectangle width="44" height="33" as="alternateBounds" />
          </mxGeometry>
        </mxCell>
        <mxCell id="RB8xPHDvJfS-Jv2ElMEI-101" value="" style="shape=partialRectangle;html=1;whiteSpace=wrap;connectable=0;strokeColor=inherit;overflow=hidden;fillColor=none;top=0;left=0;bottom=0;right=0;pointerEvents=1;fontSize=16;" vertex="1" parent="RB8xPHDvJfS-Jv2ElMEI-98">
          <mxGeometry x="87" width="43" height="33" as="geometry">
            <mxRectangle width="43" height="33" as="alternateBounds" />
          </mxGeometry>
        </mxCell>
        <mxCell id="RB8xPHDvJfS-Jv2ElMEI-104" value="" style="endArrow=classic;html=1;rounded=0;" edge="1" parent="1">
          <mxGeometry width="50" height="50" relative="1" as="geometry">
            <mxPoint x="639" y="588" as="sourcePoint" />
            <mxPoint x="639" y="646" as="targetPoint" />
          </mxGeometry>
        </mxCell>
        <mxCell id="RB8xPHDvJfS-Jv2ElMEI-105" value="" style="shape=table;startSize=0;container=1;collapsible=0;childLayout=tableLayout;fontSize=16;fillColor=#f8cecc;strokeColor=#b85450;" vertex="1" parent="1">
          <mxGeometry x="740" y="646" width="130" height="100" as="geometry" />
        </mxCell>
        <mxCell id="RB8xPHDvJfS-Jv2ElMEI-106" value="" style="shape=tableRow;horizontal=0;startSize=0;swimlaneHead=0;swimlaneBody=0;strokeColor=inherit;top=0;left=0;bottom=0;right=0;collapsible=0;dropTarget=0;fillColor=none;points=[[0,0.5],[1,0.5]];portConstraint=eastwest;fontSize=16;" vertex="1" parent="RB8xPHDvJfS-Jv2ElMEI-105">
          <mxGeometry width="130" height="33" as="geometry" />
        </mxCell>
        <mxCell id="RB8xPHDvJfS-Jv2ElMEI-107" value="" style="shape=partialRectangle;html=1;whiteSpace=wrap;connectable=0;strokeColor=inherit;overflow=hidden;fillColor=none;top=0;left=0;bottom=0;right=0;pointerEvents=1;fontSize=16;" vertex="1" parent="RB8xPHDvJfS-Jv2ElMEI-106">
          <mxGeometry width="43" height="33" as="geometry">
            <mxRectangle width="43" height="33" as="alternateBounds" />
          </mxGeometry>
        </mxCell>
        <mxCell id="RB8xPHDvJfS-Jv2ElMEI-108" value="" style="shape=partialRectangle;html=1;whiteSpace=wrap;connectable=0;strokeColor=inherit;overflow=hidden;fillColor=none;top=0;left=0;bottom=0;right=0;pointerEvents=1;fontSize=16;" vertex="1" parent="RB8xPHDvJfS-Jv2ElMEI-106">
          <mxGeometry x="43" width="44" height="33" as="geometry">
            <mxRectangle width="44" height="33" as="alternateBounds" />
          </mxGeometry>
        </mxCell>
        <mxCell id="RB8xPHDvJfS-Jv2ElMEI-109" value="" style="shape=partialRectangle;html=1;whiteSpace=wrap;connectable=0;strokeColor=inherit;overflow=hidden;fillColor=none;top=0;left=0;bottom=0;right=0;pointerEvents=1;fontSize=16;" vertex="1" parent="RB8xPHDvJfS-Jv2ElMEI-106">
          <mxGeometry x="87" width="43" height="33" as="geometry">
            <mxRectangle width="43" height="33" as="alternateBounds" />
          </mxGeometry>
        </mxCell>
        <mxCell id="RB8xPHDvJfS-Jv2ElMEI-110" value="" style="shape=tableRow;horizontal=0;startSize=0;swimlaneHead=0;swimlaneBody=0;strokeColor=inherit;top=0;left=0;bottom=0;right=0;collapsible=0;dropTarget=0;fillColor=none;points=[[0,0.5],[1,0.5]];portConstraint=eastwest;fontSize=16;" vertex="1" parent="RB8xPHDvJfS-Jv2ElMEI-105">
          <mxGeometry y="33" width="130" height="34" as="geometry" />
        </mxCell>
        <mxCell id="RB8xPHDvJfS-Jv2ElMEI-111" value="" style="shape=partialRectangle;html=1;whiteSpace=wrap;connectable=0;strokeColor=inherit;overflow=hidden;fillColor=none;top=0;left=0;bottom=0;right=0;pointerEvents=1;fontSize=16;" vertex="1" parent="RB8xPHDvJfS-Jv2ElMEI-110">
          <mxGeometry width="43" height="34" as="geometry">
            <mxRectangle width="43" height="34" as="alternateBounds" />
          </mxGeometry>
        </mxCell>
        <mxCell id="RB8xPHDvJfS-Jv2ElMEI-112" value="&lt;span style=&quot;font-size: 18px;&quot;&gt;&lt;b&gt;k&lt;/b&gt;&lt;/span&gt;" style="shape=partialRectangle;html=1;whiteSpace=wrap;connectable=0;strokeColor=inherit;overflow=hidden;fillColor=none;top=0;left=0;bottom=0;right=0;pointerEvents=1;fontSize=16;" vertex="1" parent="RB8xPHDvJfS-Jv2ElMEI-110">
          <mxGeometry x="43" width="44" height="34" as="geometry">
            <mxRectangle width="44" height="34" as="alternateBounds" />
          </mxGeometry>
        </mxCell>
        <mxCell id="RB8xPHDvJfS-Jv2ElMEI-113" value="" style="shape=partialRectangle;html=1;whiteSpace=wrap;connectable=0;strokeColor=inherit;overflow=hidden;fillColor=none;top=0;left=0;bottom=0;right=0;pointerEvents=1;fontSize=16;" vertex="1" parent="RB8xPHDvJfS-Jv2ElMEI-110">
          <mxGeometry x="87" width="43" height="34" as="geometry">
            <mxRectangle width="43" height="34" as="alternateBounds" />
          </mxGeometry>
        </mxCell>
        <mxCell id="RB8xPHDvJfS-Jv2ElMEI-114" value="" style="shape=tableRow;horizontal=0;startSize=0;swimlaneHead=0;swimlaneBody=0;strokeColor=inherit;top=0;left=0;bottom=0;right=0;collapsible=0;dropTarget=0;fillColor=none;points=[[0,0.5],[1,0.5]];portConstraint=eastwest;fontSize=16;" vertex="1" parent="RB8xPHDvJfS-Jv2ElMEI-105">
          <mxGeometry y="67" width="130" height="33" as="geometry" />
        </mxCell>
        <mxCell id="RB8xPHDvJfS-Jv2ElMEI-115" value="" style="shape=partialRectangle;html=1;whiteSpace=wrap;connectable=0;strokeColor=inherit;overflow=hidden;fillColor=none;top=0;left=0;bottom=0;right=0;pointerEvents=1;fontSize=16;" vertex="1" parent="RB8xPHDvJfS-Jv2ElMEI-114">
          <mxGeometry width="43" height="33" as="geometry">
            <mxRectangle width="43" height="33" as="alternateBounds" />
          </mxGeometry>
        </mxCell>
        <mxCell id="RB8xPHDvJfS-Jv2ElMEI-116" value="" style="shape=partialRectangle;html=1;whiteSpace=wrap;connectable=0;strokeColor=inherit;overflow=hidden;fillColor=none;top=0;left=0;bottom=0;right=0;pointerEvents=1;fontSize=16;" vertex="1" parent="RB8xPHDvJfS-Jv2ElMEI-114">
          <mxGeometry x="43" width="44" height="33" as="geometry">
            <mxRectangle width="44" height="33" as="alternateBounds" />
          </mxGeometry>
        </mxCell>
        <mxCell id="RB8xPHDvJfS-Jv2ElMEI-117" value="" style="shape=partialRectangle;html=1;whiteSpace=wrap;connectable=0;strokeColor=inherit;overflow=hidden;fillColor=none;top=0;left=0;bottom=0;right=0;pointerEvents=1;fontSize=16;" vertex="1" parent="RB8xPHDvJfS-Jv2ElMEI-114">
          <mxGeometry x="87" width="43" height="33" as="geometry">
            <mxRectangle width="43" height="33" as="alternateBounds" />
          </mxGeometry>
        </mxCell>
        <mxCell id="RB8xPHDvJfS-Jv2ElMEI-118" value="" style="endArrow=classic;html=1;rounded=0;" edge="1" parent="1">
          <mxGeometry width="50" height="50" relative="1" as="geometry">
            <mxPoint x="804" y="588" as="sourcePoint" />
            <mxPoint x="804" y="646" as="targetPoint" />
          </mxGeometry>
        </mxCell>
        <mxCell id="RB8xPHDvJfS-Jv2ElMEI-119" value="" style="shape=table;startSize=0;container=1;collapsible=0;childLayout=tableLayout;fontSize=16;fillColor=#d5e8d4;strokeColor=#82b366;" vertex="1" parent="1">
          <mxGeometry x="900" y="646" width="130" height="100" as="geometry" />
        </mxCell>
        <mxCell id="RB8xPHDvJfS-Jv2ElMEI-120" value="" style="shape=tableRow;horizontal=0;startSize=0;swimlaneHead=0;swimlaneBody=0;strokeColor=inherit;top=0;left=0;bottom=0;right=0;collapsible=0;dropTarget=0;fillColor=none;points=[[0,0.5],[1,0.5]];portConstraint=eastwest;fontSize=16;" vertex="1" parent="RB8xPHDvJfS-Jv2ElMEI-119">
          <mxGeometry width="130" height="33" as="geometry" />
        </mxCell>
        <mxCell id="RB8xPHDvJfS-Jv2ElMEI-121" value="" style="shape=partialRectangle;html=1;whiteSpace=wrap;connectable=0;strokeColor=inherit;overflow=hidden;fillColor=none;top=0;left=0;bottom=0;right=0;pointerEvents=1;fontSize=16;" vertex="1" parent="RB8xPHDvJfS-Jv2ElMEI-120">
          <mxGeometry width="43" height="33" as="geometry">
            <mxRectangle width="43" height="33" as="alternateBounds" />
          </mxGeometry>
        </mxCell>
        <mxCell id="RB8xPHDvJfS-Jv2ElMEI-122" value="" style="shape=partialRectangle;html=1;whiteSpace=wrap;connectable=0;strokeColor=inherit;overflow=hidden;fillColor=none;top=0;left=0;bottom=0;right=0;pointerEvents=1;fontSize=16;" vertex="1" parent="RB8xPHDvJfS-Jv2ElMEI-120">
          <mxGeometry x="43" width="44" height="33" as="geometry">
            <mxRectangle width="44" height="33" as="alternateBounds" />
          </mxGeometry>
        </mxCell>
        <mxCell id="RB8xPHDvJfS-Jv2ElMEI-123" value="" style="shape=partialRectangle;html=1;whiteSpace=wrap;connectable=0;strokeColor=inherit;overflow=hidden;fillColor=none;top=0;left=0;bottom=0;right=0;pointerEvents=1;fontSize=16;" vertex="1" parent="RB8xPHDvJfS-Jv2ElMEI-120">
          <mxGeometry x="87" width="43" height="33" as="geometry">
            <mxRectangle width="43" height="33" as="alternateBounds" />
          </mxGeometry>
        </mxCell>
        <mxCell id="RB8xPHDvJfS-Jv2ElMEI-124" value="" style="shape=tableRow;horizontal=0;startSize=0;swimlaneHead=0;swimlaneBody=0;strokeColor=inherit;top=0;left=0;bottom=0;right=0;collapsible=0;dropTarget=0;fillColor=none;points=[[0,0.5],[1,0.5]];portConstraint=eastwest;fontSize=16;" vertex="1" parent="RB8xPHDvJfS-Jv2ElMEI-119">
          <mxGeometry y="33" width="130" height="34" as="geometry" />
        </mxCell>
        <mxCell id="RB8xPHDvJfS-Jv2ElMEI-125" value="" style="shape=partialRectangle;html=1;whiteSpace=wrap;connectable=0;strokeColor=inherit;overflow=hidden;fillColor=none;top=0;left=0;bottom=0;right=0;pointerEvents=1;fontSize=16;" vertex="1" parent="RB8xPHDvJfS-Jv2ElMEI-124">
          <mxGeometry width="43" height="34" as="geometry">
            <mxRectangle width="43" height="34" as="alternateBounds" />
          </mxGeometry>
        </mxCell>
        <mxCell id="RB8xPHDvJfS-Jv2ElMEI-126" value="&lt;span style=&quot;font-size: 18px;&quot;&gt;&lt;b&gt;v&lt;/b&gt;&lt;/span&gt;" style="shape=partialRectangle;html=1;whiteSpace=wrap;connectable=0;strokeColor=inherit;overflow=hidden;fillColor=none;top=0;left=0;bottom=0;right=0;pointerEvents=1;fontSize=16;" vertex="1" parent="RB8xPHDvJfS-Jv2ElMEI-124">
          <mxGeometry x="43" width="44" height="34" as="geometry">
            <mxRectangle width="44" height="34" as="alternateBounds" />
          </mxGeometry>
        </mxCell>
        <mxCell id="RB8xPHDvJfS-Jv2ElMEI-127" value="" style="shape=partialRectangle;html=1;whiteSpace=wrap;connectable=0;strokeColor=inherit;overflow=hidden;fillColor=none;top=0;left=0;bottom=0;right=0;pointerEvents=1;fontSize=16;" vertex="1" parent="RB8xPHDvJfS-Jv2ElMEI-124">
          <mxGeometry x="87" width="43" height="34" as="geometry">
            <mxRectangle width="43" height="34" as="alternateBounds" />
          </mxGeometry>
        </mxCell>
        <mxCell id="RB8xPHDvJfS-Jv2ElMEI-128" value="" style="shape=tableRow;horizontal=0;startSize=0;swimlaneHead=0;swimlaneBody=0;strokeColor=inherit;top=0;left=0;bottom=0;right=0;collapsible=0;dropTarget=0;fillColor=none;points=[[0,0.5],[1,0.5]];portConstraint=eastwest;fontSize=16;" vertex="1" parent="RB8xPHDvJfS-Jv2ElMEI-119">
          <mxGeometry y="67" width="130" height="33" as="geometry" />
        </mxCell>
        <mxCell id="RB8xPHDvJfS-Jv2ElMEI-129" value="" style="shape=partialRectangle;html=1;whiteSpace=wrap;connectable=0;strokeColor=inherit;overflow=hidden;fillColor=none;top=0;left=0;bottom=0;right=0;pointerEvents=1;fontSize=16;" vertex="1" parent="RB8xPHDvJfS-Jv2ElMEI-128">
          <mxGeometry width="43" height="33" as="geometry">
            <mxRectangle width="43" height="33" as="alternateBounds" />
          </mxGeometry>
        </mxCell>
        <mxCell id="RB8xPHDvJfS-Jv2ElMEI-130" value="" style="shape=partialRectangle;html=1;whiteSpace=wrap;connectable=0;strokeColor=inherit;overflow=hidden;fillColor=none;top=0;left=0;bottom=0;right=0;pointerEvents=1;fontSize=16;" vertex="1" parent="RB8xPHDvJfS-Jv2ElMEI-128">
          <mxGeometry x="43" width="44" height="33" as="geometry">
            <mxRectangle width="44" height="33" as="alternateBounds" />
          </mxGeometry>
        </mxCell>
        <mxCell id="RB8xPHDvJfS-Jv2ElMEI-131" value="" style="shape=partialRectangle;html=1;whiteSpace=wrap;connectable=0;strokeColor=inherit;overflow=hidden;fillColor=none;top=0;left=0;bottom=0;right=0;pointerEvents=1;fontSize=16;" vertex="1" parent="RB8xPHDvJfS-Jv2ElMEI-128">
          <mxGeometry x="87" width="43" height="33" as="geometry">
            <mxRectangle width="43" height="33" as="alternateBounds" />
          </mxGeometry>
        </mxCell>
        <mxCell id="RB8xPHDvJfS-Jv2ElMEI-132" value="" style="endArrow=classic;html=1;rounded=0;" edge="1" parent="1">
          <mxGeometry width="50" height="50" relative="1" as="geometry">
            <mxPoint x="964" y="588" as="sourcePoint" />
            <mxPoint x="964" y="646" as="targetPoint" />
          </mxGeometry>
        </mxCell>
        <mxCell id="RB8xPHDvJfS-Jv2ElMEI-136" value="" style="endArrow=classic;html=1;rounded=0;dashed=1;" edge="1" parent="1" target="RB8xPHDvJfS-Jv2ElMEI-134">
          <mxGeometry width="50" height="50" relative="1" as="geometry">
            <mxPoint x="422" y="640" as="sourcePoint" />
            <mxPoint x="1060" y="536" as="targetPoint" />
          </mxGeometry>
        </mxCell>
        <mxCell id="RB8xPHDvJfS-Jv2ElMEI-134" value="" style="shape=sumEllipse;perimeter=ellipsePerimeter;whiteSpace=wrap;html=1;backgroundOutline=1;" vertex="1" parent="1">
          <mxGeometry x="510.37" y="521" width="30" height="30" as="geometry" />
        </mxCell>
        <mxCell id="RB8xPHDvJfS-Jv2ElMEI-140" value="seq_len * dim_q" style="text;html=1;align=center;verticalAlign=middle;whiteSpace=wrap;rounded=0;" vertex="1" parent="1">
          <mxGeometry x="530" y="616" width="110" height="30" as="geometry" />
        </mxCell>
        <mxCell id="RB8xPHDvJfS-Jv2ElMEI-141" value="seq_len * dim_k" style="text;html=1;align=center;verticalAlign=middle;whiteSpace=wrap;rounded=0;" vertex="1" parent="1">
          <mxGeometry x="690" y="616" width="110" height="30" as="geometry" />
        </mxCell>
        <mxCell id="RB8xPHDvJfS-Jv2ElMEI-142" value="seq_len * dim_v" style="text;html=1;align=center;verticalAlign=middle;whiteSpace=wrap;rounded=0;" vertex="1" parent="1">
          <mxGeometry x="850" y="616" width="110" height="30" as="geometry" />
        </mxCell>
        <mxCell id="RB8xPHDvJfS-Jv2ElMEI-144" value="" style="shape=table;startSize=0;container=1;collapsible=0;childLayout=tableLayout;fontSize=16;fillColor=#b0e3e6;strokeColor=#0e8088;" vertex="1" parent="1">
          <mxGeometry x="1230" y="647.64" width="130" height="100" as="geometry" />
        </mxCell>
        <mxCell id="RB8xPHDvJfS-Jv2ElMEI-145" value="" style="shape=tableRow;horizontal=0;startSize=0;swimlaneHead=0;swimlaneBody=0;strokeColor=inherit;top=0;left=0;bottom=0;right=0;collapsible=0;dropTarget=0;fillColor=none;points=[[0,0.5],[1,0.5]];portConstraint=eastwest;fontSize=16;" vertex="1" parent="RB8xPHDvJfS-Jv2ElMEI-144">
          <mxGeometry width="130" height="33" as="geometry" />
        </mxCell>
        <mxCell id="RB8xPHDvJfS-Jv2ElMEI-146" value="" style="shape=partialRectangle;html=1;whiteSpace=wrap;connectable=0;strokeColor=inherit;overflow=hidden;fillColor=none;top=0;left=0;bottom=0;right=0;pointerEvents=1;fontSize=16;" vertex="1" parent="RB8xPHDvJfS-Jv2ElMEI-145">
          <mxGeometry width="43" height="33" as="geometry">
            <mxRectangle width="43" height="33" as="alternateBounds" />
          </mxGeometry>
        </mxCell>
        <mxCell id="RB8xPHDvJfS-Jv2ElMEI-147" value="mask" style="shape=partialRectangle;html=1;whiteSpace=wrap;connectable=0;strokeColor=inherit;overflow=hidden;fillColor=none;top=0;left=0;bottom=0;right=0;pointerEvents=1;fontSize=16;" vertex="1" parent="RB8xPHDvJfS-Jv2ElMEI-145">
          <mxGeometry x="43" width="44" height="33" as="geometry">
            <mxRectangle width="44" height="33" as="alternateBounds" />
          </mxGeometry>
        </mxCell>
        <mxCell id="RB8xPHDvJfS-Jv2ElMEI-148" value="mask" style="shape=partialRectangle;html=1;whiteSpace=wrap;connectable=0;strokeColor=inherit;overflow=hidden;fillColor=none;top=0;left=0;bottom=0;right=0;pointerEvents=1;fontSize=16;" vertex="1" parent="RB8xPHDvJfS-Jv2ElMEI-145">
          <mxGeometry x="87" width="43" height="33" as="geometry">
            <mxRectangle width="43" height="33" as="alternateBounds" />
          </mxGeometry>
        </mxCell>
        <mxCell id="RB8xPHDvJfS-Jv2ElMEI-149" value="" style="shape=tableRow;horizontal=0;startSize=0;swimlaneHead=0;swimlaneBody=0;strokeColor=inherit;top=0;left=0;bottom=0;right=0;collapsible=0;dropTarget=0;fillColor=none;points=[[0,0.5],[1,0.5]];portConstraint=eastwest;fontSize=16;" vertex="1" parent="RB8xPHDvJfS-Jv2ElMEI-144">
          <mxGeometry y="33" width="130" height="34" as="geometry" />
        </mxCell>
        <mxCell id="RB8xPHDvJfS-Jv2ElMEI-150" value="" style="shape=partialRectangle;html=1;whiteSpace=wrap;connectable=0;strokeColor=inherit;overflow=hidden;fillColor=none;top=0;left=0;bottom=0;right=0;pointerEvents=1;fontSize=16;" vertex="1" parent="RB8xPHDvJfS-Jv2ElMEI-149">
          <mxGeometry width="43" height="34" as="geometry">
            <mxRectangle width="43" height="34" as="alternateBounds" />
          </mxGeometry>
        </mxCell>
        <mxCell id="RB8xPHDvJfS-Jv2ElMEI-151" value="&lt;span style=&quot;font-size: 18px;&quot;&gt;&lt;b&gt;q*k&lt;sup&gt;T&lt;/sup&gt;&lt;/b&gt;&lt;/span&gt;" style="shape=partialRectangle;html=1;whiteSpace=wrap;connectable=0;strokeColor=inherit;overflow=hidden;fillColor=none;top=0;left=0;bottom=0;right=0;pointerEvents=1;fontSize=16;" vertex="1" parent="RB8xPHDvJfS-Jv2ElMEI-149">
          <mxGeometry x="43" width="44" height="34" as="geometry">
            <mxRectangle width="44" height="34" as="alternateBounds" />
          </mxGeometry>
        </mxCell>
        <mxCell id="RB8xPHDvJfS-Jv2ElMEI-152" value="mask" style="shape=partialRectangle;html=1;whiteSpace=wrap;connectable=0;strokeColor=inherit;overflow=hidden;fillColor=none;top=0;left=0;bottom=0;right=0;pointerEvents=1;fontSize=16;" vertex="1" parent="RB8xPHDvJfS-Jv2ElMEI-149">
          <mxGeometry x="87" width="43" height="34" as="geometry">
            <mxRectangle width="43" height="34" as="alternateBounds" />
          </mxGeometry>
        </mxCell>
        <mxCell id="RB8xPHDvJfS-Jv2ElMEI-153" value="" style="shape=tableRow;horizontal=0;startSize=0;swimlaneHead=0;swimlaneBody=0;strokeColor=inherit;top=0;left=0;bottom=0;right=0;collapsible=0;dropTarget=0;fillColor=none;points=[[0,0.5],[1,0.5]];portConstraint=eastwest;fontSize=16;" vertex="1" parent="RB8xPHDvJfS-Jv2ElMEI-144">
          <mxGeometry y="67" width="130" height="33" as="geometry" />
        </mxCell>
        <mxCell id="RB8xPHDvJfS-Jv2ElMEI-154" value="" style="shape=partialRectangle;html=1;whiteSpace=wrap;connectable=0;strokeColor=inherit;overflow=hidden;fillColor=none;top=0;left=0;bottom=0;right=0;pointerEvents=1;fontSize=16;" vertex="1" parent="RB8xPHDvJfS-Jv2ElMEI-153">
          <mxGeometry width="43" height="33" as="geometry">
            <mxRectangle width="43" height="33" as="alternateBounds" />
          </mxGeometry>
        </mxCell>
        <mxCell id="RB8xPHDvJfS-Jv2ElMEI-155" value="" style="shape=partialRectangle;html=1;whiteSpace=wrap;connectable=0;strokeColor=inherit;overflow=hidden;fillColor=none;top=0;left=0;bottom=0;right=0;pointerEvents=1;fontSize=16;" vertex="1" parent="RB8xPHDvJfS-Jv2ElMEI-153">
          <mxGeometry x="43" width="44" height="33" as="geometry">
            <mxRectangle width="44" height="33" as="alternateBounds" />
          </mxGeometry>
        </mxCell>
        <mxCell id="RB8xPHDvJfS-Jv2ElMEI-156" value="" style="shape=partialRectangle;html=1;whiteSpace=wrap;connectable=0;strokeColor=inherit;overflow=hidden;fillColor=none;top=0;left=0;bottom=0;right=0;pointerEvents=1;fontSize=16;" vertex="1" parent="RB8xPHDvJfS-Jv2ElMEI-153">
          <mxGeometry x="87" width="43" height="33" as="geometry">
            <mxRectangle width="43" height="33" as="alternateBounds" />
          </mxGeometry>
        </mxCell>
        <mxCell id="RB8xPHDvJfS-Jv2ElMEI-157" value="&lt;b&gt;&lt;i&gt;&lt;font style=&quot;font-size: 17px;&quot;&gt;attention weight&lt;/font&gt;&lt;/i&gt;&lt;/b&gt;" style="text;html=1;align=center;verticalAlign=middle;whiteSpace=wrap;rounded=0;" vertex="1" parent="1">
          <mxGeometry x="1070" y="677.64" width="170" height="30" as="geometry" />
        </mxCell>
        <mxCell id="RB8xPHDvJfS-Jv2ElMEI-158" value="seq_len * seq_len" style="text;html=1;align=center;verticalAlign=middle;whiteSpace=wrap;rounded=0;" vertex="1" parent="1">
          <mxGeometry x="1180" y="616" width="125" height="30" as="geometry" />
        </mxCell>
        <mxCell id="RB8xPHDvJfS-Jv2ElMEI-159" value="" style="shape=table;startSize=0;container=1;collapsible=0;childLayout=tableLayout;fontSize=16;fillColor=#fad7ac;strokeColor=#b46504;" vertex="1" parent="1">
          <mxGeometry x="1470" y="647.64" width="130" height="100" as="geometry" />
        </mxCell>
        <mxCell id="RB8xPHDvJfS-Jv2ElMEI-160" value="" style="shape=tableRow;horizontal=0;startSize=0;swimlaneHead=0;swimlaneBody=0;strokeColor=inherit;top=0;left=0;bottom=0;right=0;collapsible=0;dropTarget=0;fillColor=none;points=[[0,0.5],[1,0.5]];portConstraint=eastwest;fontSize=16;" vertex="1" parent="RB8xPHDvJfS-Jv2ElMEI-159">
          <mxGeometry width="130" height="33" as="geometry" />
        </mxCell>
        <mxCell id="RB8xPHDvJfS-Jv2ElMEI-161" value="" style="shape=partialRectangle;html=1;whiteSpace=wrap;connectable=0;strokeColor=inherit;overflow=hidden;fillColor=none;top=0;left=0;bottom=0;right=0;pointerEvents=1;fontSize=16;" vertex="1" parent="RB8xPHDvJfS-Jv2ElMEI-160">
          <mxGeometry width="43" height="33" as="geometry">
            <mxRectangle width="43" height="33" as="alternateBounds" />
          </mxGeometry>
        </mxCell>
        <mxCell id="RB8xPHDvJfS-Jv2ElMEI-162" value="" style="shape=partialRectangle;html=1;whiteSpace=wrap;connectable=0;strokeColor=inherit;overflow=hidden;fillColor=none;top=0;left=0;bottom=0;right=0;pointerEvents=1;fontSize=16;" vertex="1" parent="RB8xPHDvJfS-Jv2ElMEI-160">
          <mxGeometry x="43" width="44" height="33" as="geometry">
            <mxRectangle width="44" height="33" as="alternateBounds" />
          </mxGeometry>
        </mxCell>
        <mxCell id="RB8xPHDvJfS-Jv2ElMEI-163" value="" style="shape=partialRectangle;html=1;whiteSpace=wrap;connectable=0;strokeColor=inherit;overflow=hidden;fillColor=none;top=0;left=0;bottom=0;right=0;pointerEvents=1;fontSize=16;" vertex="1" parent="RB8xPHDvJfS-Jv2ElMEI-160">
          <mxGeometry x="87" width="43" height="33" as="geometry">
            <mxRectangle width="43" height="33" as="alternateBounds" />
          </mxGeometry>
        </mxCell>
        <mxCell id="RB8xPHDvJfS-Jv2ElMEI-164" value="" style="shape=tableRow;horizontal=0;startSize=0;swimlaneHead=0;swimlaneBody=0;strokeColor=inherit;top=0;left=0;bottom=0;right=0;collapsible=0;dropTarget=0;fillColor=none;points=[[0,0.5],[1,0.5]];portConstraint=eastwest;fontSize=16;" vertex="1" parent="RB8xPHDvJfS-Jv2ElMEI-159">
          <mxGeometry y="33" width="130" height="34" as="geometry" />
        </mxCell>
        <mxCell id="RB8xPHDvJfS-Jv2ElMEI-165" value="" style="shape=partialRectangle;html=1;whiteSpace=wrap;connectable=0;strokeColor=inherit;overflow=hidden;fillColor=none;top=0;left=0;bottom=0;right=0;pointerEvents=1;fontSize=16;" vertex="1" parent="RB8xPHDvJfS-Jv2ElMEI-164">
          <mxGeometry width="43" height="34" as="geometry">
            <mxRectangle width="43" height="34" as="alternateBounds" />
          </mxGeometry>
        </mxCell>
        <mxCell id="RB8xPHDvJfS-Jv2ElMEI-166" value="&lt;span style=&quot;font-size: 18px;&quot;&gt;&lt;b&gt;O&lt;/b&gt;&lt;/span&gt;" style="shape=partialRectangle;html=1;whiteSpace=wrap;connectable=0;strokeColor=inherit;overflow=hidden;fillColor=none;top=0;left=0;bottom=0;right=0;pointerEvents=1;fontSize=16;" vertex="1" parent="RB8xPHDvJfS-Jv2ElMEI-164">
          <mxGeometry x="43" width="44" height="34" as="geometry">
            <mxRectangle width="44" height="34" as="alternateBounds" />
          </mxGeometry>
        </mxCell>
        <mxCell id="RB8xPHDvJfS-Jv2ElMEI-167" value="" style="shape=partialRectangle;html=1;whiteSpace=wrap;connectable=0;strokeColor=inherit;overflow=hidden;fillColor=none;top=0;left=0;bottom=0;right=0;pointerEvents=1;fontSize=16;" vertex="1" parent="RB8xPHDvJfS-Jv2ElMEI-164">
          <mxGeometry x="87" width="43" height="34" as="geometry">
            <mxRectangle width="43" height="34" as="alternateBounds" />
          </mxGeometry>
        </mxCell>
        <mxCell id="RB8xPHDvJfS-Jv2ElMEI-168" value="" style="shape=tableRow;horizontal=0;startSize=0;swimlaneHead=0;swimlaneBody=0;strokeColor=inherit;top=0;left=0;bottom=0;right=0;collapsible=0;dropTarget=0;fillColor=none;points=[[0,0.5],[1,0.5]];portConstraint=eastwest;fontSize=16;" vertex="1" parent="RB8xPHDvJfS-Jv2ElMEI-159">
          <mxGeometry y="67" width="130" height="33" as="geometry" />
        </mxCell>
        <mxCell id="RB8xPHDvJfS-Jv2ElMEI-169" value="" style="shape=partialRectangle;html=1;whiteSpace=wrap;connectable=0;strokeColor=inherit;overflow=hidden;fillColor=none;top=0;left=0;bottom=0;right=0;pointerEvents=1;fontSize=16;" vertex="1" parent="RB8xPHDvJfS-Jv2ElMEI-168">
          <mxGeometry width="43" height="33" as="geometry">
            <mxRectangle width="43" height="33" as="alternateBounds" />
          </mxGeometry>
        </mxCell>
        <mxCell id="RB8xPHDvJfS-Jv2ElMEI-170" value="" style="shape=partialRectangle;html=1;whiteSpace=wrap;connectable=0;strokeColor=inherit;overflow=hidden;fillColor=none;top=0;left=0;bottom=0;right=0;pointerEvents=1;fontSize=16;" vertex="1" parent="RB8xPHDvJfS-Jv2ElMEI-168">
          <mxGeometry x="43" width="44" height="33" as="geometry">
            <mxRectangle width="44" height="33" as="alternateBounds" />
          </mxGeometry>
        </mxCell>
        <mxCell id="RB8xPHDvJfS-Jv2ElMEI-171" value="" style="shape=partialRectangle;html=1;whiteSpace=wrap;connectable=0;strokeColor=inherit;overflow=hidden;fillColor=none;top=0;left=0;bottom=0;right=0;pointerEvents=1;fontSize=16;" vertex="1" parent="RB8xPHDvJfS-Jv2ElMEI-168">
          <mxGeometry x="87" width="43" height="33" as="geometry">
            <mxRectangle width="43" height="33" as="alternateBounds" />
          </mxGeometry>
        </mxCell>
        <mxCell id="RB8xPHDvJfS-Jv2ElMEI-172" value="" style="endArrow=classic;html=1;rounded=0;exitX=1;exitY=0.5;exitDx=0;exitDy=0;entryX=0;entryY=0.5;entryDx=0;entryDy=0;" edge="1" parent="1" source="RB8xPHDvJfS-Jv2ElMEI-149" target="RB8xPHDvJfS-Jv2ElMEI-164">
          <mxGeometry width="50" height="50" relative="1" as="geometry">
            <mxPoint x="1370" y="547.64" as="sourcePoint" />
            <mxPoint x="1420" y="497.64" as="targetPoint" />
          </mxGeometry>
        </mxCell>
        <mxCell id="RB8xPHDvJfS-Jv2ElMEI-174" value="" style="endArrow=classic;html=1;rounded=0;dashed=1;" edge="1" parent="1">
          <mxGeometry width="50" height="50" relative="1" as="geometry">
            <mxPoint x="1610" y="697.64" as="sourcePoint" />
            <mxPoint x="1680" y="697.64" as="targetPoint" />
          </mxGeometry>
        </mxCell>
        <mxCell id="RB8xPHDvJfS-Jv2ElMEI-178" value="&lt;b&gt;OK&lt;/b&gt;" style="text;html=1;align=center;verticalAlign=middle;whiteSpace=wrap;rounded=0;" vertex="1" parent="1">
          <mxGeometry x="258" y="720" width="60" height="30" as="geometry" />
        </mxCell>
        <mxCell id="RB8xPHDvJfS-Jv2ElMEI-179" value="&lt;b&gt;?&lt;/b&gt;" style="text;html=1;align=center;verticalAlign=middle;whiteSpace=wrap;rounded=0;" vertex="1" parent="1">
          <mxGeometry x="1660" y="680.14" width="70" height="35" as="geometry" />
        </mxCell>
        <mxCell id="RB8xPHDvJfS-Jv2ElMEI-193" value="&lt;b&gt;Are&lt;/b&gt;" style="text;html=1;align=center;verticalAlign=middle;whiteSpace=wrap;rounded=0;" vertex="1" parent="1">
          <mxGeometry x="295" y="970" width="60" height="30" as="geometry" />
        </mxCell>
        <mxCell id="RB8xPHDvJfS-Jv2ElMEI-194" value="&lt;b&gt;you&lt;/b&gt;" style="text;html=1;align=center;verticalAlign=middle;whiteSpace=wrap;rounded=0;" vertex="1" parent="1">
          <mxGeometry x="295" y="1005" width="60" height="30" as="geometry" />
        </mxCell>
        <mxCell id="RB8xPHDvJfS-Jv2ElMEI-195" value="&lt;font style=&quot;font-size: 16px;&quot;&gt;(seq_len , dim_em)&lt;/font&gt;" style="text;html=1;align=center;verticalAlign=middle;whiteSpace=wrap;rounded=0;" vertex="1" parent="1">
          <mxGeometry x="260" y="930" width="165" height="30" as="geometry" />
        </mxCell>
        <mxCell id="RB8xPHDvJfS-Jv2ElMEI-196" value="&lt;b&gt;OK&lt;/b&gt;" style="text;html=1;align=center;verticalAlign=middle;whiteSpace=wrap;rounded=0;" vertex="1" parent="1">
          <mxGeometry x="295" y="1040" width="60" height="30" as="geometry" />
        </mxCell>
        <mxCell id="RB8xPHDvJfS-Jv2ElMEI-224" value="" style="shape=table;startSize=0;container=1;collapsible=0;childLayout=tableLayout;fillColor=#ffe6cc;strokeColor=#d79b00;" vertex="1" parent="1">
          <mxGeometry x="372" y="960" width="130" height="140" as="geometry" />
        </mxCell>
        <mxCell id="RB8xPHDvJfS-Jv2ElMEI-225" value="" style="shape=tableRow;horizontal=0;startSize=0;swimlaneHead=0;swimlaneBody=0;strokeColor=inherit;top=0;left=0;bottom=0;right=0;collapsible=0;dropTarget=0;fillColor=none;points=[[0,0.5],[1,0.5]];portConstraint=eastwest;" vertex="1" parent="RB8xPHDvJfS-Jv2ElMEI-224">
          <mxGeometry width="130" height="35" as="geometry" />
        </mxCell>
        <mxCell id="RB8xPHDvJfS-Jv2ElMEI-226" value="" style="shape=partialRectangle;html=1;whiteSpace=wrap;connectable=0;strokeColor=inherit;overflow=hidden;fillColor=none;top=0;left=0;bottom=0;right=0;pointerEvents=1;" vertex="1" parent="RB8xPHDvJfS-Jv2ElMEI-225">
          <mxGeometry width="43" height="35" as="geometry">
            <mxRectangle width="43" height="35" as="alternateBounds" />
          </mxGeometry>
        </mxCell>
        <mxCell id="RB8xPHDvJfS-Jv2ElMEI-227" value="" style="shape=partialRectangle;html=1;whiteSpace=wrap;connectable=0;strokeColor=inherit;overflow=hidden;fillColor=none;top=0;left=0;bottom=0;right=0;pointerEvents=1;" vertex="1" parent="RB8xPHDvJfS-Jv2ElMEI-225">
          <mxGeometry x="43" width="44" height="35" as="geometry">
            <mxRectangle width="44" height="35" as="alternateBounds" />
          </mxGeometry>
        </mxCell>
        <mxCell id="RB8xPHDvJfS-Jv2ElMEI-228" value="" style="shape=partialRectangle;html=1;whiteSpace=wrap;connectable=0;strokeColor=inherit;overflow=hidden;fillColor=none;top=0;left=0;bottom=0;right=0;pointerEvents=1;" vertex="1" parent="RB8xPHDvJfS-Jv2ElMEI-225">
          <mxGeometry x="87" width="43" height="35" as="geometry">
            <mxRectangle width="43" height="35" as="alternateBounds" />
          </mxGeometry>
        </mxCell>
        <mxCell id="RB8xPHDvJfS-Jv2ElMEI-229" value="" style="shape=tableRow;horizontal=0;startSize=0;swimlaneHead=0;swimlaneBody=0;strokeColor=inherit;top=0;left=0;bottom=0;right=0;collapsible=0;dropTarget=0;fillColor=none;points=[[0,0.5],[1,0.5]];portConstraint=eastwest;" vertex="1" parent="RB8xPHDvJfS-Jv2ElMEI-224">
          <mxGeometry y="35" width="130" height="35" as="geometry" />
        </mxCell>
        <mxCell id="RB8xPHDvJfS-Jv2ElMEI-230" value="" style="shape=partialRectangle;html=1;whiteSpace=wrap;connectable=0;strokeColor=inherit;overflow=hidden;fillColor=none;top=0;left=0;bottom=0;right=0;pointerEvents=1;" vertex="1" parent="RB8xPHDvJfS-Jv2ElMEI-229">
          <mxGeometry width="43" height="35" as="geometry">
            <mxRectangle width="43" height="35" as="alternateBounds" />
          </mxGeometry>
        </mxCell>
        <mxCell id="RB8xPHDvJfS-Jv2ElMEI-231" value="" style="shape=partialRectangle;html=1;whiteSpace=wrap;connectable=0;strokeColor=inherit;overflow=hidden;fillColor=none;top=0;left=0;bottom=0;right=0;pointerEvents=1;" vertex="1" parent="RB8xPHDvJfS-Jv2ElMEI-229">
          <mxGeometry x="43" width="44" height="35" as="geometry">
            <mxRectangle width="44" height="35" as="alternateBounds" />
          </mxGeometry>
        </mxCell>
        <mxCell id="RB8xPHDvJfS-Jv2ElMEI-232" value="" style="shape=partialRectangle;html=1;whiteSpace=wrap;connectable=0;strokeColor=inherit;overflow=hidden;fillColor=none;top=0;left=0;bottom=0;right=0;pointerEvents=1;" vertex="1" parent="RB8xPHDvJfS-Jv2ElMEI-229">
          <mxGeometry x="87" width="43" height="35" as="geometry">
            <mxRectangle width="43" height="35" as="alternateBounds" />
          </mxGeometry>
        </mxCell>
        <mxCell id="RB8xPHDvJfS-Jv2ElMEI-233" value="" style="shape=tableRow;horizontal=0;startSize=0;swimlaneHead=0;swimlaneBody=0;strokeColor=inherit;top=0;left=0;bottom=0;right=0;collapsible=0;dropTarget=0;fillColor=none;points=[[0,0.5],[1,0.5]];portConstraint=eastwest;" vertex="1" parent="RB8xPHDvJfS-Jv2ElMEI-224">
          <mxGeometry y="70" width="130" height="35" as="geometry" />
        </mxCell>
        <mxCell id="RB8xPHDvJfS-Jv2ElMEI-234" value="" style="shape=partialRectangle;html=1;whiteSpace=wrap;connectable=0;strokeColor=inherit;overflow=hidden;fillColor=none;top=0;left=0;bottom=0;right=0;pointerEvents=1;" vertex="1" parent="RB8xPHDvJfS-Jv2ElMEI-233">
          <mxGeometry width="43" height="35" as="geometry">
            <mxRectangle width="43" height="35" as="alternateBounds" />
          </mxGeometry>
        </mxCell>
        <mxCell id="RB8xPHDvJfS-Jv2ElMEI-235" value="" style="shape=partialRectangle;html=1;whiteSpace=wrap;connectable=0;strokeColor=inherit;overflow=hidden;fillColor=none;top=0;left=0;bottom=0;right=0;pointerEvents=1;" vertex="1" parent="RB8xPHDvJfS-Jv2ElMEI-233">
          <mxGeometry x="43" width="44" height="35" as="geometry">
            <mxRectangle width="44" height="35" as="alternateBounds" />
          </mxGeometry>
        </mxCell>
        <mxCell id="RB8xPHDvJfS-Jv2ElMEI-236" value="" style="shape=partialRectangle;html=1;whiteSpace=wrap;connectable=0;strokeColor=inherit;overflow=hidden;fillColor=none;top=0;left=0;bottom=0;right=0;pointerEvents=1;" vertex="1" parent="RB8xPHDvJfS-Jv2ElMEI-233">
          <mxGeometry x="87" width="43" height="35" as="geometry">
            <mxRectangle width="43" height="35" as="alternateBounds" />
          </mxGeometry>
        </mxCell>
        <mxCell id="RB8xPHDvJfS-Jv2ElMEI-237" value="" style="shape=tableRow;horizontal=0;startSize=0;swimlaneHead=0;swimlaneBody=0;strokeColor=inherit;top=0;left=0;bottom=0;right=0;collapsible=0;dropTarget=0;fillColor=none;points=[[0,0.5],[1,0.5]];portConstraint=eastwest;" vertex="1" parent="RB8xPHDvJfS-Jv2ElMEI-224">
          <mxGeometry y="105" width="130" height="35" as="geometry" />
        </mxCell>
        <mxCell id="RB8xPHDvJfS-Jv2ElMEI-238" value="" style="shape=partialRectangle;html=1;whiteSpace=wrap;connectable=0;strokeColor=#C73500;overflow=hidden;fillColor=#fa6800;top=0;left=0;bottom=0;right=0;pointerEvents=1;fontColor=#000000;" vertex="1" parent="RB8xPHDvJfS-Jv2ElMEI-237">
          <mxGeometry width="43" height="35" as="geometry">
            <mxRectangle width="43" height="35" as="alternateBounds" />
          </mxGeometry>
        </mxCell>
        <mxCell id="RB8xPHDvJfS-Jv2ElMEI-239" value="" style="shape=partialRectangle;html=1;whiteSpace=wrap;connectable=0;strokeColor=#C73500;overflow=hidden;fillColor=#fa6800;top=0;left=0;bottom=0;right=0;pointerEvents=1;fontColor=#000000;" vertex="1" parent="RB8xPHDvJfS-Jv2ElMEI-237">
          <mxGeometry x="43" width="44" height="35" as="geometry">
            <mxRectangle width="44" height="35" as="alternateBounds" />
          </mxGeometry>
        </mxCell>
        <mxCell id="RB8xPHDvJfS-Jv2ElMEI-240" value="" style="shape=partialRectangle;html=1;whiteSpace=wrap;connectable=0;strokeColor=#C73500;overflow=hidden;fillColor=#fa6800;top=0;left=0;bottom=0;right=0;pointerEvents=1;fontColor=#000000;" vertex="1" parent="RB8xPHDvJfS-Jv2ElMEI-237">
          <mxGeometry x="87" width="43" height="35" as="geometry">
            <mxRectangle width="43" height="35" as="alternateBounds" />
          </mxGeometry>
        </mxCell>
        <mxCell id="RB8xPHDvJfS-Jv2ElMEI-241" value="&lt;b&gt;?&lt;/b&gt;" style="text;html=1;align=center;verticalAlign=middle;whiteSpace=wrap;rounded=0;" vertex="1" parent="1">
          <mxGeometry x="290" y="1070" width="70" height="35" as="geometry" />
        </mxCell>
        <mxCell id="RB8xPHDvJfS-Jv2ElMEI-242" value="" style="shape=partialRectangle;html=1;whiteSpace=wrap;connectable=0;strokeColor=inherit;overflow=hidden;fillColor=none;top=0;left=0;bottom=0;right=0;pointerEvents=1;" vertex="1" parent="1">
          <mxGeometry x="425" y="1005" width="44" height="35" as="geometry">
            <mxRectangle width="44" height="35" as="alternateBounds" />
          </mxGeometry>
        </mxCell>
        <mxCell id="RB8xPHDvJfS-Jv2ElMEI-243" value="" style="shape=table;startSize=0;container=1;collapsible=0;childLayout=tableLayout;fillColor=#dae8fc;strokeColor=#6c8ebf;" vertex="1" parent="1">
          <mxGeometry x="576" y="960" width="130" height="140" as="geometry" />
        </mxCell>
        <mxCell id="RB8xPHDvJfS-Jv2ElMEI-244" value="" style="shape=tableRow;horizontal=0;startSize=0;swimlaneHead=0;swimlaneBody=0;strokeColor=inherit;top=0;left=0;bottom=0;right=0;collapsible=0;dropTarget=0;fillColor=none;points=[[0,0.5],[1,0.5]];portConstraint=eastwest;" vertex="1" parent="RB8xPHDvJfS-Jv2ElMEI-243">
          <mxGeometry width="130" height="35" as="geometry" />
        </mxCell>
        <mxCell id="RB8xPHDvJfS-Jv2ElMEI-245" value="" style="shape=partialRectangle;html=1;whiteSpace=wrap;connectable=0;strokeColor=inherit;overflow=hidden;fillColor=none;top=0;left=0;bottom=0;right=0;pointerEvents=1;" vertex="1" parent="RB8xPHDvJfS-Jv2ElMEI-244">
          <mxGeometry width="43" height="35" as="geometry">
            <mxRectangle width="43" height="35" as="alternateBounds" />
          </mxGeometry>
        </mxCell>
        <mxCell id="RB8xPHDvJfS-Jv2ElMEI-246" value="" style="shape=partialRectangle;html=1;whiteSpace=wrap;connectable=0;strokeColor=inherit;overflow=hidden;fillColor=none;top=0;left=0;bottom=0;right=0;pointerEvents=1;" vertex="1" parent="RB8xPHDvJfS-Jv2ElMEI-244">
          <mxGeometry x="43" width="44" height="35" as="geometry">
            <mxRectangle width="44" height="35" as="alternateBounds" />
          </mxGeometry>
        </mxCell>
        <mxCell id="RB8xPHDvJfS-Jv2ElMEI-247" value="" style="shape=partialRectangle;html=1;whiteSpace=wrap;connectable=0;strokeColor=inherit;overflow=hidden;fillColor=none;top=0;left=0;bottom=0;right=0;pointerEvents=1;" vertex="1" parent="RB8xPHDvJfS-Jv2ElMEI-244">
          <mxGeometry x="87" width="43" height="35" as="geometry">
            <mxRectangle width="43" height="35" as="alternateBounds" />
          </mxGeometry>
        </mxCell>
        <mxCell id="RB8xPHDvJfS-Jv2ElMEI-248" value="" style="shape=tableRow;horizontal=0;startSize=0;swimlaneHead=0;swimlaneBody=0;strokeColor=inherit;top=0;left=0;bottom=0;right=0;collapsible=0;dropTarget=0;fillColor=none;points=[[0,0.5],[1,0.5]];portConstraint=eastwest;" vertex="1" parent="RB8xPHDvJfS-Jv2ElMEI-243">
          <mxGeometry y="35" width="130" height="35" as="geometry" />
        </mxCell>
        <mxCell id="RB8xPHDvJfS-Jv2ElMEI-249" value="" style="shape=partialRectangle;html=1;whiteSpace=wrap;connectable=0;strokeColor=inherit;overflow=hidden;fillColor=none;top=0;left=0;bottom=0;right=0;pointerEvents=1;" vertex="1" parent="RB8xPHDvJfS-Jv2ElMEI-248">
          <mxGeometry width="43" height="35" as="geometry">
            <mxRectangle width="43" height="35" as="alternateBounds" />
          </mxGeometry>
        </mxCell>
        <mxCell id="RB8xPHDvJfS-Jv2ElMEI-250" value="&lt;b&gt;&lt;font style=&quot;font-size: 18px;&quot;&gt;q&lt;/font&gt;&lt;/b&gt;" style="shape=partialRectangle;html=1;whiteSpace=wrap;connectable=0;strokeColor=inherit;overflow=hidden;fillColor=none;top=0;left=0;bottom=0;right=0;pointerEvents=1;" vertex="1" parent="RB8xPHDvJfS-Jv2ElMEI-248">
          <mxGeometry x="43" width="44" height="35" as="geometry">
            <mxRectangle width="44" height="35" as="alternateBounds" />
          </mxGeometry>
        </mxCell>
        <mxCell id="RB8xPHDvJfS-Jv2ElMEI-251" value="" style="shape=partialRectangle;html=1;whiteSpace=wrap;connectable=0;strokeColor=inherit;overflow=hidden;fillColor=none;top=0;left=0;bottom=0;right=0;pointerEvents=1;" vertex="1" parent="RB8xPHDvJfS-Jv2ElMEI-248">
          <mxGeometry x="87" width="43" height="35" as="geometry">
            <mxRectangle width="43" height="35" as="alternateBounds" />
          </mxGeometry>
        </mxCell>
        <mxCell id="RB8xPHDvJfS-Jv2ElMEI-252" value="" style="shape=tableRow;horizontal=0;startSize=0;swimlaneHead=0;swimlaneBody=0;strokeColor=inherit;top=0;left=0;bottom=0;right=0;collapsible=0;dropTarget=0;fillColor=none;points=[[0,0.5],[1,0.5]];portConstraint=eastwest;" vertex="1" parent="RB8xPHDvJfS-Jv2ElMEI-243">
          <mxGeometry y="70" width="130" height="35" as="geometry" />
        </mxCell>
        <mxCell id="RB8xPHDvJfS-Jv2ElMEI-253" value="" style="shape=partialRectangle;html=1;whiteSpace=wrap;connectable=0;strokeColor=inherit;overflow=hidden;fillColor=none;top=0;left=0;bottom=0;right=0;pointerEvents=1;" vertex="1" parent="RB8xPHDvJfS-Jv2ElMEI-252">
          <mxGeometry width="43" height="35" as="geometry">
            <mxRectangle width="43" height="35" as="alternateBounds" />
          </mxGeometry>
        </mxCell>
        <mxCell id="RB8xPHDvJfS-Jv2ElMEI-254" value="" style="shape=partialRectangle;html=1;whiteSpace=wrap;connectable=0;strokeColor=inherit;overflow=hidden;fillColor=none;top=0;left=0;bottom=0;right=0;pointerEvents=1;" vertex="1" parent="RB8xPHDvJfS-Jv2ElMEI-252">
          <mxGeometry x="43" width="44" height="35" as="geometry">
            <mxRectangle width="44" height="35" as="alternateBounds" />
          </mxGeometry>
        </mxCell>
        <mxCell id="RB8xPHDvJfS-Jv2ElMEI-255" value="" style="shape=partialRectangle;html=1;whiteSpace=wrap;connectable=0;strokeColor=inherit;overflow=hidden;fillColor=none;top=0;left=0;bottom=0;right=0;pointerEvents=1;" vertex="1" parent="RB8xPHDvJfS-Jv2ElMEI-252">
          <mxGeometry x="87" width="43" height="35" as="geometry">
            <mxRectangle width="43" height="35" as="alternateBounds" />
          </mxGeometry>
        </mxCell>
        <mxCell id="RB8xPHDvJfS-Jv2ElMEI-256" value="" style="shape=tableRow;horizontal=0;startSize=0;swimlaneHead=0;swimlaneBody=0;strokeColor=inherit;top=0;left=0;bottom=0;right=0;collapsible=0;dropTarget=0;fillColor=none;points=[[0,0.5],[1,0.5]];portConstraint=eastwest;" vertex="1" parent="RB8xPHDvJfS-Jv2ElMEI-243">
          <mxGeometry y="105" width="130" height="35" as="geometry" />
        </mxCell>
        <mxCell id="RB8xPHDvJfS-Jv2ElMEI-257" value="" style="shape=partialRectangle;html=1;whiteSpace=wrap;connectable=0;strokeColor=#006EAF;overflow=hidden;fillColor=#1ba1e2;top=0;left=0;bottom=0;right=0;pointerEvents=1;fontColor=#ffffff;" vertex="1" parent="RB8xPHDvJfS-Jv2ElMEI-256">
          <mxGeometry width="43" height="35" as="geometry">
            <mxRectangle width="43" height="35" as="alternateBounds" />
          </mxGeometry>
        </mxCell>
        <mxCell id="RB8xPHDvJfS-Jv2ElMEI-258" value="&lt;b&gt;&lt;font color=&quot;#000000&quot; style=&quot;font-size: 18px;&quot;&gt;q&lt;sub&gt;4&lt;/sub&gt;&lt;/font&gt;&lt;/b&gt;" style="shape=partialRectangle;html=1;whiteSpace=wrap;connectable=0;strokeColor=#006EAF;overflow=hidden;fillColor=#1ba1e2;top=0;left=0;bottom=0;right=0;pointerEvents=1;fontColor=#ffffff;" vertex="1" parent="RB8xPHDvJfS-Jv2ElMEI-256">
          <mxGeometry x="43" width="44" height="35" as="geometry">
            <mxRectangle width="44" height="35" as="alternateBounds" />
          </mxGeometry>
        </mxCell>
        <mxCell id="RB8xPHDvJfS-Jv2ElMEI-259" value="" style="shape=partialRectangle;html=1;whiteSpace=wrap;connectable=0;strokeColor=#006EAF;overflow=hidden;fillColor=#1ba1e2;top=0;left=0;bottom=0;right=0;pointerEvents=1;fontColor=#ffffff;" vertex="1" parent="RB8xPHDvJfS-Jv2ElMEI-256">
          <mxGeometry x="87" width="43" height="35" as="geometry">
            <mxRectangle width="43" height="35" as="alternateBounds" />
          </mxGeometry>
        </mxCell>
        <mxCell id="RB8xPHDvJfS-Jv2ElMEI-260" value="" style="shape=table;startSize=0;container=1;collapsible=0;childLayout=tableLayout;fillColor=#fad9d5;strokeColor=#ae4132;direction=east;" vertex="1" parent="1">
          <mxGeometry x="746" y="960" width="130" height="140" as="geometry" />
        </mxCell>
        <mxCell id="RB8xPHDvJfS-Jv2ElMEI-261" value="" style="shape=tableRow;horizontal=0;startSize=0;swimlaneHead=0;swimlaneBody=0;strokeColor=inherit;top=0;left=0;bottom=0;right=0;collapsible=0;dropTarget=0;fillColor=none;points=[[0,0.5],[1,0.5]];portConstraint=eastwest;" vertex="1" parent="RB8xPHDvJfS-Jv2ElMEI-260">
          <mxGeometry width="130" height="35" as="geometry" />
        </mxCell>
        <mxCell id="RB8xPHDvJfS-Jv2ElMEI-262" value="" style="shape=partialRectangle;html=1;whiteSpace=wrap;connectable=0;strokeColor=inherit;overflow=hidden;fillColor=none;top=0;left=0;bottom=0;right=0;pointerEvents=1;" vertex="1" parent="RB8xPHDvJfS-Jv2ElMEI-261">
          <mxGeometry width="43" height="35" as="geometry">
            <mxRectangle width="43" height="35" as="alternateBounds" />
          </mxGeometry>
        </mxCell>
        <mxCell id="RB8xPHDvJfS-Jv2ElMEI-263" value="" style="shape=partialRectangle;html=1;whiteSpace=wrap;connectable=0;strokeColor=inherit;overflow=hidden;fillColor=none;top=0;left=0;bottom=0;right=0;pointerEvents=1;" vertex="1" parent="RB8xPHDvJfS-Jv2ElMEI-261">
          <mxGeometry x="43" width="44" height="35" as="geometry">
            <mxRectangle width="44" height="35" as="alternateBounds" />
          </mxGeometry>
        </mxCell>
        <mxCell id="RB8xPHDvJfS-Jv2ElMEI-264" value="" style="shape=partialRectangle;html=1;whiteSpace=wrap;connectable=0;strokeColor=inherit;overflow=hidden;fillColor=none;top=0;left=0;bottom=0;right=0;pointerEvents=1;" vertex="1" parent="RB8xPHDvJfS-Jv2ElMEI-261">
          <mxGeometry x="87" width="43" height="35" as="geometry">
            <mxRectangle width="43" height="35" as="alternateBounds" />
          </mxGeometry>
        </mxCell>
        <mxCell id="RB8xPHDvJfS-Jv2ElMEI-265" value="" style="shape=tableRow;horizontal=0;startSize=0;swimlaneHead=0;swimlaneBody=0;strokeColor=inherit;top=0;left=0;bottom=0;right=0;collapsible=0;dropTarget=0;fillColor=none;points=[[0,0.5],[1,0.5]];portConstraint=eastwest;" vertex="1" parent="RB8xPHDvJfS-Jv2ElMEI-260">
          <mxGeometry y="35" width="130" height="35" as="geometry" />
        </mxCell>
        <mxCell id="RB8xPHDvJfS-Jv2ElMEI-266" value="" style="shape=partialRectangle;html=1;whiteSpace=wrap;connectable=0;strokeColor=inherit;overflow=hidden;fillColor=none;top=0;left=0;bottom=0;right=0;pointerEvents=1;" vertex="1" parent="RB8xPHDvJfS-Jv2ElMEI-265">
          <mxGeometry width="43" height="35" as="geometry">
            <mxRectangle width="43" height="35" as="alternateBounds" />
          </mxGeometry>
        </mxCell>
        <mxCell id="RB8xPHDvJfS-Jv2ElMEI-267" value="&lt;span style=&quot;font-size: 18px;&quot;&gt;&lt;b&gt;k&lt;/b&gt;&lt;/span&gt;" style="shape=partialRectangle;html=1;whiteSpace=wrap;connectable=0;strokeColor=inherit;overflow=hidden;fillColor=none;top=0;left=0;bottom=0;right=0;pointerEvents=1;" vertex="1" parent="RB8xPHDvJfS-Jv2ElMEI-265">
          <mxGeometry x="43" width="44" height="35" as="geometry">
            <mxRectangle width="44" height="35" as="alternateBounds" />
          </mxGeometry>
        </mxCell>
        <mxCell id="RB8xPHDvJfS-Jv2ElMEI-268" value="" style="shape=partialRectangle;html=1;whiteSpace=wrap;connectable=0;strokeColor=inherit;overflow=hidden;fillColor=none;top=0;left=0;bottom=0;right=0;pointerEvents=1;" vertex="1" parent="RB8xPHDvJfS-Jv2ElMEI-265">
          <mxGeometry x="87" width="43" height="35" as="geometry">
            <mxRectangle width="43" height="35" as="alternateBounds" />
          </mxGeometry>
        </mxCell>
        <mxCell id="RB8xPHDvJfS-Jv2ElMEI-269" value="" style="shape=tableRow;horizontal=0;startSize=0;swimlaneHead=0;swimlaneBody=0;strokeColor=inherit;top=0;left=0;bottom=0;right=0;collapsible=0;dropTarget=0;fillColor=none;points=[[0,0.5],[1,0.5]];portConstraint=eastwest;" vertex="1" parent="RB8xPHDvJfS-Jv2ElMEI-260">
          <mxGeometry y="70" width="130" height="35" as="geometry" />
        </mxCell>
        <mxCell id="RB8xPHDvJfS-Jv2ElMEI-270" value="" style="shape=partialRectangle;html=1;whiteSpace=wrap;connectable=0;strokeColor=inherit;overflow=hidden;fillColor=none;top=0;left=0;bottom=0;right=0;pointerEvents=1;" vertex="1" parent="RB8xPHDvJfS-Jv2ElMEI-269">
          <mxGeometry width="43" height="35" as="geometry">
            <mxRectangle width="43" height="35" as="alternateBounds" />
          </mxGeometry>
        </mxCell>
        <mxCell id="RB8xPHDvJfS-Jv2ElMEI-271" value="" style="shape=partialRectangle;html=1;whiteSpace=wrap;connectable=0;strokeColor=inherit;overflow=hidden;fillColor=none;top=0;left=0;bottom=0;right=0;pointerEvents=1;" vertex="1" parent="RB8xPHDvJfS-Jv2ElMEI-269">
          <mxGeometry x="43" width="44" height="35" as="geometry">
            <mxRectangle width="44" height="35" as="alternateBounds" />
          </mxGeometry>
        </mxCell>
        <mxCell id="RB8xPHDvJfS-Jv2ElMEI-272" value="" style="shape=partialRectangle;html=1;whiteSpace=wrap;connectable=0;strokeColor=inherit;overflow=hidden;fillColor=none;top=0;left=0;bottom=0;right=0;pointerEvents=1;" vertex="1" parent="RB8xPHDvJfS-Jv2ElMEI-269">
          <mxGeometry x="87" width="43" height="35" as="geometry">
            <mxRectangle width="43" height="35" as="alternateBounds" />
          </mxGeometry>
        </mxCell>
        <mxCell id="RB8xPHDvJfS-Jv2ElMEI-273" value="" style="shape=tableRow;horizontal=0;startSize=0;swimlaneHead=0;swimlaneBody=0;strokeColor=inherit;top=0;left=0;bottom=0;right=0;collapsible=0;dropTarget=0;fillColor=none;points=[[0,0.5],[1,0.5]];portConstraint=eastwest;" vertex="1" parent="RB8xPHDvJfS-Jv2ElMEI-260">
          <mxGeometry y="105" width="130" height="35" as="geometry" />
        </mxCell>
        <mxCell id="RB8xPHDvJfS-Jv2ElMEI-274" value="" style="shape=partialRectangle;html=1;whiteSpace=wrap;connectable=0;strokeColor=#B20000;overflow=hidden;fillColor=#e51400;top=0;left=0;bottom=0;right=0;pointerEvents=1;fontColor=#ffffff;" vertex="1" parent="RB8xPHDvJfS-Jv2ElMEI-273">
          <mxGeometry width="43" height="35" as="geometry">
            <mxRectangle width="43" height="35" as="alternateBounds" />
          </mxGeometry>
        </mxCell>
        <mxCell id="RB8xPHDvJfS-Jv2ElMEI-275" value="" style="shape=partialRectangle;html=1;whiteSpace=wrap;connectable=0;strokeColor=#B20000;overflow=hidden;fillColor=#e51400;top=0;left=0;bottom=0;right=0;pointerEvents=1;fontColor=#ffffff;" vertex="1" parent="RB8xPHDvJfS-Jv2ElMEI-273">
          <mxGeometry x="43" width="44" height="35" as="geometry">
            <mxRectangle width="44" height="35" as="alternateBounds" />
          </mxGeometry>
        </mxCell>
        <mxCell id="RB8xPHDvJfS-Jv2ElMEI-276" value="" style="shape=partialRectangle;html=1;whiteSpace=wrap;connectable=0;strokeColor=#B20000;overflow=hidden;fillColor=#e51400;top=0;left=0;bottom=0;right=0;pointerEvents=1;fontColor=#ffffff;" vertex="1" parent="RB8xPHDvJfS-Jv2ElMEI-273">
          <mxGeometry x="87" width="43" height="35" as="geometry">
            <mxRectangle width="43" height="35" as="alternateBounds" />
          </mxGeometry>
        </mxCell>
        <mxCell id="RB8xPHDvJfS-Jv2ElMEI-277" value="" style="shape=table;startSize=0;container=1;collapsible=0;childLayout=tableLayout;fillColor=#d5e8d4;strokeColor=#82b366;" vertex="1" parent="1">
          <mxGeometry x="901" y="960" width="130" height="140" as="geometry" />
        </mxCell>
        <mxCell id="RB8xPHDvJfS-Jv2ElMEI-278" value="" style="shape=tableRow;horizontal=0;startSize=0;swimlaneHead=0;swimlaneBody=0;strokeColor=inherit;top=0;left=0;bottom=0;right=0;collapsible=0;dropTarget=0;fillColor=none;points=[[0,0.5],[1,0.5]];portConstraint=eastwest;" vertex="1" parent="RB8xPHDvJfS-Jv2ElMEI-277">
          <mxGeometry width="130" height="35" as="geometry" />
        </mxCell>
        <mxCell id="RB8xPHDvJfS-Jv2ElMEI-279" value="" style="shape=partialRectangle;html=1;whiteSpace=wrap;connectable=0;strokeColor=inherit;overflow=hidden;fillColor=none;top=0;left=0;bottom=0;right=0;pointerEvents=1;" vertex="1" parent="RB8xPHDvJfS-Jv2ElMEI-278">
          <mxGeometry width="43" height="35" as="geometry">
            <mxRectangle width="43" height="35" as="alternateBounds" />
          </mxGeometry>
        </mxCell>
        <mxCell id="RB8xPHDvJfS-Jv2ElMEI-280" value="" style="shape=partialRectangle;html=1;whiteSpace=wrap;connectable=0;strokeColor=inherit;overflow=hidden;fillColor=none;top=0;left=0;bottom=0;right=0;pointerEvents=1;" vertex="1" parent="RB8xPHDvJfS-Jv2ElMEI-278">
          <mxGeometry x="43" width="44" height="35" as="geometry">
            <mxRectangle width="44" height="35" as="alternateBounds" />
          </mxGeometry>
        </mxCell>
        <mxCell id="RB8xPHDvJfS-Jv2ElMEI-281" value="" style="shape=partialRectangle;html=1;whiteSpace=wrap;connectable=0;strokeColor=inherit;overflow=hidden;fillColor=none;top=0;left=0;bottom=0;right=0;pointerEvents=1;" vertex="1" parent="RB8xPHDvJfS-Jv2ElMEI-278">
          <mxGeometry x="87" width="43" height="35" as="geometry">
            <mxRectangle width="43" height="35" as="alternateBounds" />
          </mxGeometry>
        </mxCell>
        <mxCell id="RB8xPHDvJfS-Jv2ElMEI-282" value="" style="shape=tableRow;horizontal=0;startSize=0;swimlaneHead=0;swimlaneBody=0;strokeColor=inherit;top=0;left=0;bottom=0;right=0;collapsible=0;dropTarget=0;fillColor=none;points=[[0,0.5],[1,0.5]];portConstraint=eastwest;" vertex="1" parent="RB8xPHDvJfS-Jv2ElMEI-277">
          <mxGeometry y="35" width="130" height="35" as="geometry" />
        </mxCell>
        <mxCell id="RB8xPHDvJfS-Jv2ElMEI-283" value="" style="shape=partialRectangle;html=1;whiteSpace=wrap;connectable=0;strokeColor=inherit;overflow=hidden;fillColor=none;top=0;left=0;bottom=0;right=0;pointerEvents=1;" vertex="1" parent="RB8xPHDvJfS-Jv2ElMEI-282">
          <mxGeometry width="43" height="35" as="geometry">
            <mxRectangle width="43" height="35" as="alternateBounds" />
          </mxGeometry>
        </mxCell>
        <mxCell id="RB8xPHDvJfS-Jv2ElMEI-284" value="&lt;span style=&quot;font-size: 18px;&quot;&gt;&lt;b&gt;v&lt;/b&gt;&lt;/span&gt;" style="shape=partialRectangle;html=1;whiteSpace=wrap;connectable=0;strokeColor=inherit;overflow=hidden;fillColor=none;top=0;left=0;bottom=0;right=0;pointerEvents=1;" vertex="1" parent="RB8xPHDvJfS-Jv2ElMEI-282">
          <mxGeometry x="43" width="44" height="35" as="geometry">
            <mxRectangle width="44" height="35" as="alternateBounds" />
          </mxGeometry>
        </mxCell>
        <mxCell id="RB8xPHDvJfS-Jv2ElMEI-285" value="" style="shape=partialRectangle;html=1;whiteSpace=wrap;connectable=0;strokeColor=inherit;overflow=hidden;fillColor=none;top=0;left=0;bottom=0;right=0;pointerEvents=1;" vertex="1" parent="RB8xPHDvJfS-Jv2ElMEI-282">
          <mxGeometry x="87" width="43" height="35" as="geometry">
            <mxRectangle width="43" height="35" as="alternateBounds" />
          </mxGeometry>
        </mxCell>
        <mxCell id="RB8xPHDvJfS-Jv2ElMEI-286" value="" style="shape=tableRow;horizontal=0;startSize=0;swimlaneHead=0;swimlaneBody=0;strokeColor=inherit;top=0;left=0;bottom=0;right=0;collapsible=0;dropTarget=0;fillColor=none;points=[[0,0.5],[1,0.5]];portConstraint=eastwest;" vertex="1" parent="RB8xPHDvJfS-Jv2ElMEI-277">
          <mxGeometry y="70" width="130" height="35" as="geometry" />
        </mxCell>
        <mxCell id="RB8xPHDvJfS-Jv2ElMEI-287" value="" style="shape=partialRectangle;html=1;whiteSpace=wrap;connectable=0;strokeColor=inherit;overflow=hidden;fillColor=none;top=0;left=0;bottom=0;right=0;pointerEvents=1;" vertex="1" parent="RB8xPHDvJfS-Jv2ElMEI-286">
          <mxGeometry width="43" height="35" as="geometry">
            <mxRectangle width="43" height="35" as="alternateBounds" />
          </mxGeometry>
        </mxCell>
        <mxCell id="RB8xPHDvJfS-Jv2ElMEI-288" value="" style="shape=partialRectangle;html=1;whiteSpace=wrap;connectable=0;strokeColor=inherit;overflow=hidden;fillColor=none;top=0;left=0;bottom=0;right=0;pointerEvents=1;" vertex="1" parent="RB8xPHDvJfS-Jv2ElMEI-286">
          <mxGeometry x="43" width="44" height="35" as="geometry">
            <mxRectangle width="44" height="35" as="alternateBounds" />
          </mxGeometry>
        </mxCell>
        <mxCell id="RB8xPHDvJfS-Jv2ElMEI-289" value="" style="shape=partialRectangle;html=1;whiteSpace=wrap;connectable=0;strokeColor=inherit;overflow=hidden;fillColor=none;top=0;left=0;bottom=0;right=0;pointerEvents=1;" vertex="1" parent="RB8xPHDvJfS-Jv2ElMEI-286">
          <mxGeometry x="87" width="43" height="35" as="geometry">
            <mxRectangle width="43" height="35" as="alternateBounds" />
          </mxGeometry>
        </mxCell>
        <mxCell id="RB8xPHDvJfS-Jv2ElMEI-290" value="" style="shape=tableRow;horizontal=0;startSize=0;swimlaneHead=0;swimlaneBody=0;strokeColor=inherit;top=0;left=0;bottom=0;right=0;collapsible=0;dropTarget=0;fillColor=none;points=[[0,0.5],[1,0.5]];portConstraint=eastwest;" vertex="1" parent="RB8xPHDvJfS-Jv2ElMEI-277">
          <mxGeometry y="105" width="130" height="35" as="geometry" />
        </mxCell>
        <mxCell id="RB8xPHDvJfS-Jv2ElMEI-291" value="" style="shape=partialRectangle;html=1;whiteSpace=wrap;connectable=0;strokeColor=#2D7600;overflow=hidden;fillColor=#60a917;top=0;left=0;bottom=0;right=0;pointerEvents=1;fontColor=#ffffff;" vertex="1" parent="RB8xPHDvJfS-Jv2ElMEI-290">
          <mxGeometry width="43" height="35" as="geometry">
            <mxRectangle width="43" height="35" as="alternateBounds" />
          </mxGeometry>
        </mxCell>
        <mxCell id="RB8xPHDvJfS-Jv2ElMEI-292" value="" style="shape=partialRectangle;html=1;whiteSpace=wrap;connectable=0;strokeColor=#2D7600;overflow=hidden;fillColor=#60a917;top=0;left=0;bottom=0;right=0;pointerEvents=1;fontColor=#ffffff;" vertex="1" parent="RB8xPHDvJfS-Jv2ElMEI-290">
          <mxGeometry x="43" width="44" height="35" as="geometry">
            <mxRectangle width="44" height="35" as="alternateBounds" />
          </mxGeometry>
        </mxCell>
        <mxCell id="RB8xPHDvJfS-Jv2ElMEI-293" value="" style="shape=partialRectangle;html=1;whiteSpace=wrap;connectable=0;strokeColor=#2D7600;overflow=hidden;fillColor=#60a917;top=0;left=0;bottom=0;right=0;pointerEvents=1;fontColor=#ffffff;" vertex="1" parent="RB8xPHDvJfS-Jv2ElMEI-290">
          <mxGeometry x="87" width="43" height="35" as="geometry">
            <mxRectangle width="43" height="35" as="alternateBounds" />
          </mxGeometry>
        </mxCell>
        <mxCell id="RB8xPHDvJfS-Jv2ElMEI-295" value="" style="endArrow=classic;html=1;rounded=0;exitX=0.517;exitY=1.016;exitDx=0;exitDy=0;exitPerimeter=0;entryX=0.44;entryY=1.079;entryDx=0;entryDy=0;entryPerimeter=0;fillColor=#d5e8d4;strokeColor=#82b366;strokeWidth=3;" edge="1" parent="1" source="RB8xPHDvJfS-Jv2ElMEI-128" target="RB8xPHDvJfS-Jv2ElMEI-168">
          <mxGeometry width="50" height="50" relative="1" as="geometry">
            <mxPoint x="850" y="840" as="sourcePoint" />
            <mxPoint x="900" y="790" as="targetPoint" />
            <Array as="points">
              <mxPoint x="967" y="810" />
              <mxPoint x="1527" y="810" />
            </Array>
          </mxGeometry>
        </mxCell>
        <mxCell id="RB8xPHDvJfS-Jv2ElMEI-296" value="" style="endArrow=classic;html=1;rounded=0;exitX=0.508;exitY=1.054;exitDx=0;exitDy=0;exitPerimeter=0;fillColor=#fad9d5;strokeColor=#ae4132;strokeWidth=4;" edge="1" parent="1" source="RB8xPHDvJfS-Jv2ElMEI-114">
          <mxGeometry width="50" height="50" relative="1" as="geometry">
            <mxPoint x="850" y="840" as="sourcePoint" />
            <mxPoint x="1335" y="748" as="targetPoint" />
            <Array as="points">
              <mxPoint x="806" y="780" />
              <mxPoint x="1335" y="780" />
            </Array>
          </mxGeometry>
        </mxCell>
        <mxCell id="RB8xPHDvJfS-Jv2ElMEI-297" value="" style="endArrow=classic;html=1;rounded=0;fillColor=#dae8fc;strokeColor=#6c8ebf;strokeWidth=3;" edge="1" parent="1">
          <mxGeometry width="50" height="50" relative="1" as="geometry">
            <mxPoint x="640" y="750" as="sourcePoint" />
            <mxPoint x="1254" y="750" as="targetPoint" />
            <Array as="points">
              <mxPoint x="640" y="770" />
              <mxPoint x="940" y="770" />
              <mxPoint x="1254" y="770" />
            </Array>
          </mxGeometry>
        </mxCell>
        <mxCell id="RB8xPHDvJfS-Jv2ElMEI-298" value="" style="endArrow=classic;html=1;rounded=0;entryX=0.5;entryY=1;entryDx=0;entryDy=0;exitX=0.527;exitY=-0.101;exitDx=0;exitDy=0;exitPerimeter=0;dashed=1;" edge="1" parent="1" source="RB8xPHDvJfS-Jv2ElMEI-225" target="RB8xPHDvJfS-Jv2ElMEI-134">
          <mxGeometry width="50" height="50" relative="1" as="geometry">
            <mxPoint x="1060" y="960" as="sourcePoint" />
            <mxPoint x="1110" y="910" as="targetPoint" />
          </mxGeometry>
        </mxCell>
        <mxCell id="RB8xPHDvJfS-Jv2ElMEI-316" value="" style="shape=table;startSize=0;container=1;collapsible=0;childLayout=tableLayout;fillColor=#b0e3e6;strokeColor=#0e8088;" vertex="1" parent="1">
          <mxGeometry x="1220" y="960" width="190" height="165" as="geometry" />
        </mxCell>
        <mxCell id="RB8xPHDvJfS-Jv2ElMEI-317" value="" style="shape=tableRow;horizontal=0;startSize=0;swimlaneHead=0;swimlaneBody=0;strokeColor=inherit;top=0;left=0;bottom=0;right=0;collapsible=0;dropTarget=0;fillColor=none;points=[[0,0.5],[1,0.5]];portConstraint=eastwest;" vertex="1" parent="RB8xPHDvJfS-Jv2ElMEI-316">
          <mxGeometry width="190" height="41" as="geometry" />
        </mxCell>
        <mxCell id="RB8xPHDvJfS-Jv2ElMEI-318" value="" style="shape=partialRectangle;html=1;whiteSpace=wrap;connectable=0;strokeColor=inherit;overflow=hidden;fillColor=none;top=0;left=0;bottom=0;right=0;pointerEvents=1;" vertex="1" parent="RB8xPHDvJfS-Jv2ElMEI-317">
          <mxGeometry width="48" height="41" as="geometry">
            <mxRectangle width="48" height="41" as="alternateBounds" />
          </mxGeometry>
        </mxCell>
        <mxCell id="RB8xPHDvJfS-Jv2ElMEI-319" value="mask" style="shape=partialRectangle;html=1;whiteSpace=wrap;connectable=0;strokeColor=inherit;overflow=hidden;fillColor=none;top=0;left=0;bottom=0;right=0;pointerEvents=1;" vertex="1" parent="RB8xPHDvJfS-Jv2ElMEI-317">
          <mxGeometry x="48" width="47" height="41" as="geometry">
            <mxRectangle width="47" height="41" as="alternateBounds" />
          </mxGeometry>
        </mxCell>
        <mxCell id="RB8xPHDvJfS-Jv2ElMEI-320" value="mask" style="shape=partialRectangle;html=1;whiteSpace=wrap;connectable=0;strokeColor=inherit;overflow=hidden;fillColor=none;top=0;left=0;bottom=0;right=0;pointerEvents=1;" vertex="1" parent="RB8xPHDvJfS-Jv2ElMEI-317">
          <mxGeometry x="95" width="48" height="41" as="geometry">
            <mxRectangle width="48" height="41" as="alternateBounds" />
          </mxGeometry>
        </mxCell>
        <mxCell id="RB8xPHDvJfS-Jv2ElMEI-321" value="mask" style="shape=partialRectangle;html=1;whiteSpace=wrap;connectable=0;strokeColor=inherit;overflow=hidden;fillColor=none;top=0;left=0;bottom=0;right=0;pointerEvents=1;" vertex="1" parent="RB8xPHDvJfS-Jv2ElMEI-317">
          <mxGeometry x="143" width="47" height="41" as="geometry">
            <mxRectangle width="47" height="41" as="alternateBounds" />
          </mxGeometry>
        </mxCell>
        <mxCell id="RB8xPHDvJfS-Jv2ElMEI-322" value="" style="shape=tableRow;horizontal=0;startSize=0;swimlaneHead=0;swimlaneBody=0;strokeColor=inherit;top=0;left=0;bottom=0;right=0;collapsible=0;dropTarget=0;fillColor=none;points=[[0,0.5],[1,0.5]];portConstraint=eastwest;" vertex="1" parent="RB8xPHDvJfS-Jv2ElMEI-316">
          <mxGeometry y="41" width="190" height="42" as="geometry" />
        </mxCell>
        <mxCell id="RB8xPHDvJfS-Jv2ElMEI-323" value="" style="shape=partialRectangle;html=1;whiteSpace=wrap;connectable=0;strokeColor=inherit;overflow=hidden;fillColor=none;top=0;left=0;bottom=0;right=0;pointerEvents=1;" vertex="1" parent="RB8xPHDvJfS-Jv2ElMEI-322">
          <mxGeometry width="48" height="42" as="geometry">
            <mxRectangle width="48" height="42" as="alternateBounds" />
          </mxGeometry>
        </mxCell>
        <mxCell id="RB8xPHDvJfS-Jv2ElMEI-324" value="" style="shape=partialRectangle;html=1;whiteSpace=wrap;connectable=0;strokeColor=inherit;overflow=hidden;fillColor=none;top=0;left=0;bottom=0;right=0;pointerEvents=1;" vertex="1" parent="RB8xPHDvJfS-Jv2ElMEI-322">
          <mxGeometry x="48" width="47" height="42" as="geometry">
            <mxRectangle width="47" height="42" as="alternateBounds" />
          </mxGeometry>
        </mxCell>
        <mxCell id="RB8xPHDvJfS-Jv2ElMEI-325" value="mask" style="shape=partialRectangle;html=1;whiteSpace=wrap;connectable=0;strokeColor=inherit;overflow=hidden;fillColor=none;top=0;left=0;bottom=0;right=0;pointerEvents=1;" vertex="1" parent="RB8xPHDvJfS-Jv2ElMEI-322">
          <mxGeometry x="95" width="48" height="42" as="geometry">
            <mxRectangle width="48" height="42" as="alternateBounds" />
          </mxGeometry>
        </mxCell>
        <mxCell id="RB8xPHDvJfS-Jv2ElMEI-326" value="mask" style="shape=partialRectangle;html=1;whiteSpace=wrap;connectable=0;strokeColor=inherit;overflow=hidden;fillColor=none;top=0;left=0;bottom=0;right=0;pointerEvents=1;" vertex="1" parent="RB8xPHDvJfS-Jv2ElMEI-322">
          <mxGeometry x="143" width="47" height="42" as="geometry">
            <mxRectangle width="47" height="42" as="alternateBounds" />
          </mxGeometry>
        </mxCell>
        <mxCell id="RB8xPHDvJfS-Jv2ElMEI-327" value="" style="shape=tableRow;horizontal=0;startSize=0;swimlaneHead=0;swimlaneBody=0;strokeColor=inherit;top=0;left=0;bottom=0;right=0;collapsible=0;dropTarget=0;fillColor=none;points=[[0,0.5],[1,0.5]];portConstraint=eastwest;" vertex="1" parent="RB8xPHDvJfS-Jv2ElMEI-316">
          <mxGeometry y="83" width="190" height="41" as="geometry" />
        </mxCell>
        <mxCell id="RB8xPHDvJfS-Jv2ElMEI-328" value="" style="shape=partialRectangle;html=1;whiteSpace=wrap;connectable=0;strokeColor=inherit;overflow=hidden;fillColor=none;top=0;left=0;bottom=0;right=0;pointerEvents=1;" vertex="1" parent="RB8xPHDvJfS-Jv2ElMEI-327">
          <mxGeometry width="48" height="41" as="geometry">
            <mxRectangle width="48" height="41" as="alternateBounds" />
          </mxGeometry>
        </mxCell>
        <mxCell id="RB8xPHDvJfS-Jv2ElMEI-329" value="" style="shape=partialRectangle;html=1;whiteSpace=wrap;connectable=0;strokeColor=inherit;overflow=hidden;fillColor=none;top=0;left=0;bottom=0;right=0;pointerEvents=1;" vertex="1" parent="RB8xPHDvJfS-Jv2ElMEI-327">
          <mxGeometry x="48" width="47" height="41" as="geometry">
            <mxRectangle width="47" height="41" as="alternateBounds" />
          </mxGeometry>
        </mxCell>
        <mxCell id="RB8xPHDvJfS-Jv2ElMEI-330" value="" style="shape=partialRectangle;html=1;whiteSpace=wrap;connectable=0;strokeColor=inherit;overflow=hidden;fillColor=none;top=0;left=0;bottom=0;right=0;pointerEvents=1;" vertex="1" parent="RB8xPHDvJfS-Jv2ElMEI-327">
          <mxGeometry x="95" width="48" height="41" as="geometry">
            <mxRectangle width="48" height="41" as="alternateBounds" />
          </mxGeometry>
        </mxCell>
        <mxCell id="RB8xPHDvJfS-Jv2ElMEI-331" value="mask" style="shape=partialRectangle;html=1;whiteSpace=wrap;connectable=0;strokeColor=inherit;overflow=hidden;fillColor=none;top=0;left=0;bottom=0;right=0;pointerEvents=1;" vertex="1" parent="RB8xPHDvJfS-Jv2ElMEI-327">
          <mxGeometry x="143" width="47" height="41" as="geometry">
            <mxRectangle width="47" height="41" as="alternateBounds" />
          </mxGeometry>
        </mxCell>
        <mxCell id="RB8xPHDvJfS-Jv2ElMEI-332" value="" style="shape=tableRow;horizontal=0;startSize=0;swimlaneHead=0;swimlaneBody=0;strokeColor=inherit;top=0;left=0;bottom=0;right=0;collapsible=0;dropTarget=0;fillColor=none;points=[[0,0.5],[1,0.5]];portConstraint=eastwest;" vertex="1" parent="RB8xPHDvJfS-Jv2ElMEI-316">
          <mxGeometry y="124" width="190" height="41" as="geometry" />
        </mxCell>
        <mxCell id="RB8xPHDvJfS-Jv2ElMEI-333" value="" style="shape=partialRectangle;html=1;whiteSpace=wrap;connectable=0;strokeColor=#005700;overflow=hidden;fillColor=#008a00;top=0;left=0;bottom=0;right=0;pointerEvents=1;fontColor=#ffffff;" vertex="1" parent="RB8xPHDvJfS-Jv2ElMEI-332">
          <mxGeometry width="48" height="41" as="geometry">
            <mxRectangle width="48" height="41" as="alternateBounds" />
          </mxGeometry>
        </mxCell>
        <mxCell id="RB8xPHDvJfS-Jv2ElMEI-334" value="" style="shape=partialRectangle;html=1;whiteSpace=wrap;connectable=0;strokeColor=#005700;overflow=hidden;fillColor=#008a00;top=0;left=0;bottom=0;right=0;pointerEvents=1;fontColor=#ffffff;" vertex="1" parent="RB8xPHDvJfS-Jv2ElMEI-332">
          <mxGeometry x="48" width="47" height="41" as="geometry">
            <mxRectangle width="47" height="41" as="alternateBounds" />
          </mxGeometry>
        </mxCell>
        <mxCell id="RB8xPHDvJfS-Jv2ElMEI-335" value="" style="shape=partialRectangle;html=1;whiteSpace=wrap;connectable=0;strokeColor=#005700;overflow=hidden;fillColor=#008a00;top=0;left=0;bottom=0;right=0;pointerEvents=1;fontColor=#ffffff;" vertex="1" parent="RB8xPHDvJfS-Jv2ElMEI-332">
          <mxGeometry x="95" width="48" height="41" as="geometry">
            <mxRectangle width="48" height="41" as="alternateBounds" />
          </mxGeometry>
        </mxCell>
        <mxCell id="RB8xPHDvJfS-Jv2ElMEI-336" value="" style="shape=partialRectangle;html=1;whiteSpace=wrap;connectable=0;strokeColor=#005700;overflow=hidden;fillColor=#008a00;top=0;left=0;bottom=0;right=0;pointerEvents=1;fontColor=#ffffff;" vertex="1" parent="RB8xPHDvJfS-Jv2ElMEI-332">
          <mxGeometry x="143" width="47" height="41" as="geometry">
            <mxRectangle width="47" height="41" as="alternateBounds" />
          </mxGeometry>
        </mxCell>
        <mxCell id="RB8xPHDvJfS-Jv2ElMEI-337" value="&lt;b style=&quot;font-size: 18px;&quot;&gt;&lt;font color=&quot;#000000&quot;&gt;q&lt;sub&gt;4&lt;/sub&gt;&lt;/font&gt;&lt;/b&gt;" style="rounded=0;whiteSpace=wrap;html=1;fillColor=#1ba1e2;fontColor=#ffffff;strokeColor=#006EAF;" vertex="1" parent="1">
          <mxGeometry x="321.5" y="1270" width="125" height="35" as="geometry" />
        </mxCell>
        <mxCell id="RB8xPHDvJfS-Jv2ElMEI-340" value="" style="shape=table;startSize=0;container=1;collapsible=0;childLayout=tableLayout;fillColor=#fad9d5;strokeColor=#ae4132;" vertex="1" parent="1">
          <mxGeometry x="523" y="1229" width="184" height="121" as="geometry" />
        </mxCell>
        <mxCell id="RB8xPHDvJfS-Jv2ElMEI-341" value="" style="shape=tableRow;horizontal=0;startSize=0;swimlaneHead=0;swimlaneBody=0;strokeColor=inherit;top=0;left=0;bottom=0;right=0;collapsible=0;dropTarget=0;fillColor=none;points=[[0,0.5],[1,0.5]];portConstraint=eastwest;" vertex="1" parent="RB8xPHDvJfS-Jv2ElMEI-340">
          <mxGeometry width="184" height="40" as="geometry" />
        </mxCell>
        <mxCell id="RB8xPHDvJfS-Jv2ElMEI-342" value="" style="shape=partialRectangle;html=1;whiteSpace=wrap;connectable=0;strokeColor=inherit;overflow=hidden;fillColor=none;top=0;left=0;bottom=0;right=0;pointerEvents=1;" vertex="1" parent="RB8xPHDvJfS-Jv2ElMEI-341">
          <mxGeometry width="46" height="40" as="geometry">
            <mxRectangle width="46" height="40" as="alternateBounds" />
          </mxGeometry>
        </mxCell>
        <mxCell id="RB8xPHDvJfS-Jv2ElMEI-343" value="" style="shape=partialRectangle;html=1;whiteSpace=wrap;connectable=0;strokeColor=inherit;overflow=hidden;fillColor=none;top=0;left=0;bottom=0;right=0;pointerEvents=1;" vertex="1" parent="RB8xPHDvJfS-Jv2ElMEI-341">
          <mxGeometry x="46" width="46" height="40" as="geometry">
            <mxRectangle width="46" height="40" as="alternateBounds" />
          </mxGeometry>
        </mxCell>
        <mxCell id="RB8xPHDvJfS-Jv2ElMEI-344" value="" style="shape=partialRectangle;html=1;whiteSpace=wrap;connectable=0;strokeColor=inherit;overflow=hidden;fillColor=none;top=0;left=0;bottom=0;right=0;pointerEvents=1;" vertex="1" parent="RB8xPHDvJfS-Jv2ElMEI-341">
          <mxGeometry x="92" width="46" height="40" as="geometry">
            <mxRectangle width="46" height="40" as="alternateBounds" />
          </mxGeometry>
        </mxCell>
        <mxCell id="RB8xPHDvJfS-Jv2ElMEI-345" value="" style="shape=partialRectangle;html=1;whiteSpace=wrap;connectable=0;strokeColor=#B20000;overflow=hidden;fillColor=#e51400;top=0;left=0;bottom=0;right=0;pointerEvents=1;fontColor=#ffffff;" vertex="1" parent="RB8xPHDvJfS-Jv2ElMEI-341">
          <mxGeometry x="138" width="46" height="40" as="geometry">
            <mxRectangle width="46" height="40" as="alternateBounds" />
          </mxGeometry>
        </mxCell>
        <mxCell id="RB8xPHDvJfS-Jv2ElMEI-346" value="" style="shape=tableRow;horizontal=0;startSize=0;swimlaneHead=0;swimlaneBody=0;strokeColor=inherit;top=0;left=0;bottom=0;right=0;collapsible=0;dropTarget=0;fillColor=none;points=[[0,0.5],[1,0.5]];portConstraint=eastwest;" vertex="1" parent="RB8xPHDvJfS-Jv2ElMEI-340">
          <mxGeometry y="40" width="184" height="41" as="geometry" />
        </mxCell>
        <mxCell id="RB8xPHDvJfS-Jv2ElMEI-347" value="" style="shape=partialRectangle;html=1;whiteSpace=wrap;connectable=0;strokeColor=inherit;overflow=hidden;fillColor=none;top=0;left=0;bottom=0;right=0;pointerEvents=1;" vertex="1" parent="RB8xPHDvJfS-Jv2ElMEI-346">
          <mxGeometry width="46" height="41" as="geometry">
            <mxRectangle width="46" height="41" as="alternateBounds" />
          </mxGeometry>
        </mxCell>
        <mxCell id="RB8xPHDvJfS-Jv2ElMEI-348" value="&lt;b style=&quot;font-size: 18px;&quot;&gt;k&lt;sup&gt;T&lt;/sup&gt;&lt;/b&gt;" style="shape=partialRectangle;html=1;whiteSpace=wrap;connectable=0;strokeColor=inherit;overflow=hidden;fillColor=none;top=0;left=0;bottom=0;right=0;pointerEvents=1;" vertex="1" parent="RB8xPHDvJfS-Jv2ElMEI-346">
          <mxGeometry x="46" width="46" height="41" as="geometry">
            <mxRectangle width="46" height="41" as="alternateBounds" />
          </mxGeometry>
        </mxCell>
        <mxCell id="RB8xPHDvJfS-Jv2ElMEI-349" value="" style="shape=partialRectangle;html=1;whiteSpace=wrap;connectable=0;strokeColor=inherit;overflow=hidden;fillColor=none;top=0;left=0;bottom=0;right=0;pointerEvents=1;" vertex="1" parent="RB8xPHDvJfS-Jv2ElMEI-346">
          <mxGeometry x="92" width="46" height="41" as="geometry">
            <mxRectangle width="46" height="41" as="alternateBounds" />
          </mxGeometry>
        </mxCell>
        <mxCell id="RB8xPHDvJfS-Jv2ElMEI-350" value="" style="shape=partialRectangle;html=1;whiteSpace=wrap;connectable=0;strokeColor=#B20000;overflow=hidden;fillColor=#e51400;top=0;left=0;bottom=0;right=0;pointerEvents=1;fontColor=#ffffff;" vertex="1" parent="RB8xPHDvJfS-Jv2ElMEI-346">
          <mxGeometry x="138" width="46" height="41" as="geometry">
            <mxRectangle width="46" height="41" as="alternateBounds" />
          </mxGeometry>
        </mxCell>
        <mxCell id="RB8xPHDvJfS-Jv2ElMEI-351" value="" style="shape=tableRow;horizontal=0;startSize=0;swimlaneHead=0;swimlaneBody=0;strokeColor=inherit;top=0;left=0;bottom=0;right=0;collapsible=0;dropTarget=0;fillColor=none;points=[[0,0.5],[1,0.5]];portConstraint=eastwest;" vertex="1" parent="RB8xPHDvJfS-Jv2ElMEI-340">
          <mxGeometry y="81" width="184" height="40" as="geometry" />
        </mxCell>
        <mxCell id="RB8xPHDvJfS-Jv2ElMEI-352" value="" style="shape=partialRectangle;html=1;whiteSpace=wrap;connectable=0;strokeColor=inherit;overflow=hidden;fillColor=none;top=0;left=0;bottom=0;right=0;pointerEvents=1;" vertex="1" parent="RB8xPHDvJfS-Jv2ElMEI-351">
          <mxGeometry width="46" height="40" as="geometry">
            <mxRectangle width="46" height="40" as="alternateBounds" />
          </mxGeometry>
        </mxCell>
        <mxCell id="RB8xPHDvJfS-Jv2ElMEI-353" value="" style="shape=partialRectangle;html=1;whiteSpace=wrap;connectable=0;strokeColor=inherit;overflow=hidden;fillColor=none;top=0;left=0;bottom=0;right=0;pointerEvents=1;" vertex="1" parent="RB8xPHDvJfS-Jv2ElMEI-351">
          <mxGeometry x="46" width="46" height="40" as="geometry">
            <mxRectangle width="46" height="40" as="alternateBounds" />
          </mxGeometry>
        </mxCell>
        <mxCell id="RB8xPHDvJfS-Jv2ElMEI-354" value="" style="shape=partialRectangle;html=1;whiteSpace=wrap;connectable=0;strokeColor=inherit;overflow=hidden;fillColor=none;top=0;left=0;bottom=0;right=0;pointerEvents=1;" vertex="1" parent="RB8xPHDvJfS-Jv2ElMEI-351">
          <mxGeometry x="92" width="46" height="40" as="geometry">
            <mxRectangle width="46" height="40" as="alternateBounds" />
          </mxGeometry>
        </mxCell>
        <mxCell id="RB8xPHDvJfS-Jv2ElMEI-355" value="" style="shape=partialRectangle;html=1;whiteSpace=wrap;connectable=0;strokeColor=#B20000;overflow=hidden;fillColor=#e51400;top=0;left=0;bottom=0;right=0;pointerEvents=1;fontColor=#ffffff;" vertex="1" parent="RB8xPHDvJfS-Jv2ElMEI-351">
          <mxGeometry x="138" width="46" height="40" as="geometry">
            <mxRectangle width="46" height="40" as="alternateBounds" />
          </mxGeometry>
        </mxCell>
        <mxCell id="RB8xPHDvJfS-Jv2ElMEI-356" value="" style="rounded=0;whiteSpace=wrap;html=1;fillColor=#008a00;fontColor=#ffffff;strokeColor=#005700;" vertex="1" parent="1">
          <mxGeometry x="777" y="1269.5" width="190" height="40" as="geometry" />
        </mxCell>
        <mxCell id="RB8xPHDvJfS-Jv2ElMEI-359" value="" style="shape=sumEllipse;perimeter=ellipsePerimeter;whiteSpace=wrap;html=1;backgroundOutline=1;" vertex="1" parent="1">
          <mxGeometry x="467.37" y="1270" width="30" height="30" as="geometry" />
        </mxCell>
        <mxCell id="RB8xPHDvJfS-Jv2ElMEI-360" value="" style="endArrow=classic;html=1;rounded=0;" edge="1" parent="1">
          <mxGeometry width="50" height="50" relative="1" as="geometry">
            <mxPoint x="704" y="1288.59" as="sourcePoint" />
            <mxPoint x="774" y="1288.59" as="targetPoint" />
          </mxGeometry>
        </mxCell>
        <mxCell id="RB8xPHDvJfS-Jv2ElMEI-361" value="&lt;b&gt;&lt;i&gt;&lt;font style=&quot;font-size: 17px;&quot;&gt;attention weight&lt;/font&gt;&lt;/i&gt;&lt;/b&gt;" style="text;html=1;align=center;verticalAlign=middle;whiteSpace=wrap;rounded=0;" vertex="1" parent="1">
          <mxGeometry x="1060" y="1015" width="170" height="30" as="geometry" />
        </mxCell>
        <mxCell id="RB8xPHDvJfS-Jv2ElMEI-384" value="" style="rounded=0;whiteSpace=wrap;html=1;fillColor=#008a00;fontColor=#ffffff;strokeColor=#005700;" vertex="1" parent="1">
          <mxGeometry x="1051" y="1270" width="190" height="40" as="geometry" />
        </mxCell>
        <mxCell id="RB8xPHDvJfS-Jv2ElMEI-385" value="" style="shape=table;startSize=0;container=1;collapsible=0;childLayout=tableLayout;fillColor=#d5e8d4;strokeColor=#82b366;" vertex="1" parent="1">
          <mxGeometry x="1320" y="1220" width="130" height="140" as="geometry" />
        </mxCell>
        <mxCell id="RB8xPHDvJfS-Jv2ElMEI-386" value="" style="shape=tableRow;horizontal=0;startSize=0;swimlaneHead=0;swimlaneBody=0;strokeColor=inherit;top=0;left=0;bottom=0;right=0;collapsible=0;dropTarget=0;fillColor=none;points=[[0,0.5],[1,0.5]];portConstraint=eastwest;" vertex="1" parent="RB8xPHDvJfS-Jv2ElMEI-385">
          <mxGeometry width="130" height="35" as="geometry" />
        </mxCell>
        <mxCell id="RB8xPHDvJfS-Jv2ElMEI-387" value="" style="shape=partialRectangle;html=1;whiteSpace=wrap;connectable=0;strokeColor=inherit;overflow=hidden;fillColor=none;top=0;left=0;bottom=0;right=0;pointerEvents=1;" vertex="1" parent="RB8xPHDvJfS-Jv2ElMEI-386">
          <mxGeometry width="43" height="35" as="geometry">
            <mxRectangle width="43" height="35" as="alternateBounds" />
          </mxGeometry>
        </mxCell>
        <mxCell id="RB8xPHDvJfS-Jv2ElMEI-388" value="" style="shape=partialRectangle;html=1;whiteSpace=wrap;connectable=0;strokeColor=inherit;overflow=hidden;fillColor=none;top=0;left=0;bottom=0;right=0;pointerEvents=1;" vertex="1" parent="RB8xPHDvJfS-Jv2ElMEI-386">
          <mxGeometry x="43" width="44" height="35" as="geometry">
            <mxRectangle width="44" height="35" as="alternateBounds" />
          </mxGeometry>
        </mxCell>
        <mxCell id="RB8xPHDvJfS-Jv2ElMEI-389" value="" style="shape=partialRectangle;html=1;whiteSpace=wrap;connectable=0;strokeColor=inherit;overflow=hidden;fillColor=none;top=0;left=0;bottom=0;right=0;pointerEvents=1;" vertex="1" parent="RB8xPHDvJfS-Jv2ElMEI-386">
          <mxGeometry x="87" width="43" height="35" as="geometry">
            <mxRectangle width="43" height="35" as="alternateBounds" />
          </mxGeometry>
        </mxCell>
        <mxCell id="RB8xPHDvJfS-Jv2ElMEI-390" value="" style="shape=tableRow;horizontal=0;startSize=0;swimlaneHead=0;swimlaneBody=0;strokeColor=inherit;top=0;left=0;bottom=0;right=0;collapsible=0;dropTarget=0;fillColor=none;points=[[0,0.5],[1,0.5]];portConstraint=eastwest;" vertex="1" parent="RB8xPHDvJfS-Jv2ElMEI-385">
          <mxGeometry y="35" width="130" height="35" as="geometry" />
        </mxCell>
        <mxCell id="RB8xPHDvJfS-Jv2ElMEI-391" value="" style="shape=partialRectangle;html=1;whiteSpace=wrap;connectable=0;strokeColor=inherit;overflow=hidden;fillColor=none;top=0;left=0;bottom=0;right=0;pointerEvents=1;" vertex="1" parent="RB8xPHDvJfS-Jv2ElMEI-390">
          <mxGeometry width="43" height="35" as="geometry">
            <mxRectangle width="43" height="35" as="alternateBounds" />
          </mxGeometry>
        </mxCell>
        <mxCell id="RB8xPHDvJfS-Jv2ElMEI-392" value="&lt;span style=&quot;font-size: 18px;&quot;&gt;&lt;b&gt;v&lt;/b&gt;&lt;/span&gt;" style="shape=partialRectangle;html=1;whiteSpace=wrap;connectable=0;strokeColor=inherit;overflow=hidden;fillColor=none;top=0;left=0;bottom=0;right=0;pointerEvents=1;" vertex="1" parent="RB8xPHDvJfS-Jv2ElMEI-390">
          <mxGeometry x="43" width="44" height="35" as="geometry">
            <mxRectangle width="44" height="35" as="alternateBounds" />
          </mxGeometry>
        </mxCell>
        <mxCell id="RB8xPHDvJfS-Jv2ElMEI-393" value="" style="shape=partialRectangle;html=1;whiteSpace=wrap;connectable=0;strokeColor=inherit;overflow=hidden;fillColor=none;top=0;left=0;bottom=0;right=0;pointerEvents=1;" vertex="1" parent="RB8xPHDvJfS-Jv2ElMEI-390">
          <mxGeometry x="87" width="43" height="35" as="geometry">
            <mxRectangle width="43" height="35" as="alternateBounds" />
          </mxGeometry>
        </mxCell>
        <mxCell id="RB8xPHDvJfS-Jv2ElMEI-394" value="" style="shape=tableRow;horizontal=0;startSize=0;swimlaneHead=0;swimlaneBody=0;strokeColor=inherit;top=0;left=0;bottom=0;right=0;collapsible=0;dropTarget=0;fillColor=none;points=[[0,0.5],[1,0.5]];portConstraint=eastwest;" vertex="1" parent="RB8xPHDvJfS-Jv2ElMEI-385">
          <mxGeometry y="70" width="130" height="35" as="geometry" />
        </mxCell>
        <mxCell id="RB8xPHDvJfS-Jv2ElMEI-395" value="" style="shape=partialRectangle;html=1;whiteSpace=wrap;connectable=0;strokeColor=inherit;overflow=hidden;fillColor=none;top=0;left=0;bottom=0;right=0;pointerEvents=1;" vertex="1" parent="RB8xPHDvJfS-Jv2ElMEI-394">
          <mxGeometry width="43" height="35" as="geometry">
            <mxRectangle width="43" height="35" as="alternateBounds" />
          </mxGeometry>
        </mxCell>
        <mxCell id="RB8xPHDvJfS-Jv2ElMEI-396" value="" style="shape=partialRectangle;html=1;whiteSpace=wrap;connectable=0;strokeColor=inherit;overflow=hidden;fillColor=none;top=0;left=0;bottom=0;right=0;pointerEvents=1;" vertex="1" parent="RB8xPHDvJfS-Jv2ElMEI-394">
          <mxGeometry x="43" width="44" height="35" as="geometry">
            <mxRectangle width="44" height="35" as="alternateBounds" />
          </mxGeometry>
        </mxCell>
        <mxCell id="RB8xPHDvJfS-Jv2ElMEI-397" value="" style="shape=partialRectangle;html=1;whiteSpace=wrap;connectable=0;strokeColor=inherit;overflow=hidden;fillColor=none;top=0;left=0;bottom=0;right=0;pointerEvents=1;" vertex="1" parent="RB8xPHDvJfS-Jv2ElMEI-394">
          <mxGeometry x="87" width="43" height="35" as="geometry">
            <mxRectangle width="43" height="35" as="alternateBounds" />
          </mxGeometry>
        </mxCell>
        <mxCell id="RB8xPHDvJfS-Jv2ElMEI-398" value="" style="shape=tableRow;horizontal=0;startSize=0;swimlaneHead=0;swimlaneBody=0;strokeColor=inherit;top=0;left=0;bottom=0;right=0;collapsible=0;dropTarget=0;fillColor=none;points=[[0,0.5],[1,0.5]];portConstraint=eastwest;" vertex="1" parent="RB8xPHDvJfS-Jv2ElMEI-385">
          <mxGeometry y="105" width="130" height="35" as="geometry" />
        </mxCell>
        <mxCell id="RB8xPHDvJfS-Jv2ElMEI-399" value="" style="shape=partialRectangle;html=1;whiteSpace=wrap;connectable=0;strokeColor=#2D7600;overflow=hidden;fillColor=#60a917;top=0;left=0;bottom=0;right=0;pointerEvents=1;fontColor=#ffffff;" vertex="1" parent="RB8xPHDvJfS-Jv2ElMEI-398">
          <mxGeometry width="43" height="35" as="geometry">
            <mxRectangle width="43" height="35" as="alternateBounds" />
          </mxGeometry>
        </mxCell>
        <mxCell id="RB8xPHDvJfS-Jv2ElMEI-400" value="" style="shape=partialRectangle;html=1;whiteSpace=wrap;connectable=0;strokeColor=#2D7600;overflow=hidden;fillColor=#60a917;top=0;left=0;bottom=0;right=0;pointerEvents=1;fontColor=#ffffff;" vertex="1" parent="RB8xPHDvJfS-Jv2ElMEI-398">
          <mxGeometry x="43" width="44" height="35" as="geometry">
            <mxRectangle width="44" height="35" as="alternateBounds" />
          </mxGeometry>
        </mxCell>
        <mxCell id="RB8xPHDvJfS-Jv2ElMEI-401" value="" style="shape=partialRectangle;html=1;whiteSpace=wrap;connectable=0;strokeColor=#2D7600;overflow=hidden;fillColor=#60a917;top=0;left=0;bottom=0;right=0;pointerEvents=1;fontColor=#ffffff;" vertex="1" parent="RB8xPHDvJfS-Jv2ElMEI-398">
          <mxGeometry x="87" width="43" height="35" as="geometry">
            <mxRectangle width="43" height="35" as="alternateBounds" />
          </mxGeometry>
        </mxCell>
        <mxCell id="RB8xPHDvJfS-Jv2ElMEI-402" value="" style="shape=sumEllipse;perimeter=ellipsePerimeter;whiteSpace=wrap;html=1;backgroundOutline=1;" vertex="1" parent="1">
          <mxGeometry x="1260" y="1275" width="30" height="30" as="geometry" />
        </mxCell>
        <mxCell id="RB8xPHDvJfS-Jv2ElMEI-403" value="" style="rounded=0;whiteSpace=wrap;html=1;fillColor=#f0a30a;fontColor=#000000;strokeColor=#BD7000;" vertex="1" parent="1">
          <mxGeometry x="1530" y="1260" width="140" height="40" as="geometry" />
        </mxCell>
        <mxCell id="RB8xPHDvJfS-Jv2ElMEI-404" value="" style="endArrow=classic;html=1;rounded=0;" edge="1" parent="1">
          <mxGeometry width="50" height="50" relative="1" as="geometry">
            <mxPoint x="1460" y="1284.3799999999999" as="sourcePoint" />
            <mxPoint x="1530" y="1284.3799999999999" as="targetPoint" />
          </mxGeometry>
        </mxCell>
        <mxCell id="RB8xPHDvJfS-Jv2ElMEI-407" value="" style="shape=table;startSize=0;container=1;collapsible=0;childLayout=tableLayout;fillColor=#fad7ac;strokeColor=#b46504;" vertex="1" parent="1">
          <mxGeometry x="1470" y="960" width="140" height="140" as="geometry" />
        </mxCell>
        <mxCell id="RB8xPHDvJfS-Jv2ElMEI-430" value="" style="shape=tableRow;horizontal=0;startSize=0;swimlaneHead=0;swimlaneBody=0;strokeColor=inherit;top=0;left=0;bottom=0;right=0;collapsible=0;dropTarget=0;fillColor=none;points=[[0,0.5],[1,0.5]];portConstraint=eastwest;" vertex="1" parent="RB8xPHDvJfS-Jv2ElMEI-407">
          <mxGeometry width="140" height="35" as="geometry" />
        </mxCell>
        <mxCell id="RB8xPHDvJfS-Jv2ElMEI-431" value="" style="shape=partialRectangle;html=1;whiteSpace=wrap;connectable=0;strokeColor=inherit;overflow=hidden;fillColor=none;top=0;left=0;bottom=0;right=0;pointerEvents=1;" vertex="1" parent="RB8xPHDvJfS-Jv2ElMEI-430">
          <mxGeometry width="46" height="35" as="geometry">
            <mxRectangle width="46" height="35" as="alternateBounds" />
          </mxGeometry>
        </mxCell>
        <mxCell id="RB8xPHDvJfS-Jv2ElMEI-432" value="" style="shape=partialRectangle;html=1;whiteSpace=wrap;connectable=0;strokeColor=inherit;overflow=hidden;fillColor=none;top=0;left=0;bottom=0;right=0;pointerEvents=1;" vertex="1" parent="RB8xPHDvJfS-Jv2ElMEI-430">
          <mxGeometry x="46" width="48" height="35" as="geometry">
            <mxRectangle width="48" height="35" as="alternateBounds" />
          </mxGeometry>
        </mxCell>
        <mxCell id="RB8xPHDvJfS-Jv2ElMEI-433" value="" style="shape=partialRectangle;html=1;whiteSpace=wrap;connectable=0;strokeColor=inherit;overflow=hidden;fillColor=none;top=0;left=0;bottom=0;right=0;pointerEvents=1;" vertex="1" parent="RB8xPHDvJfS-Jv2ElMEI-430">
          <mxGeometry x="94" width="46" height="35" as="geometry">
            <mxRectangle width="46" height="35" as="alternateBounds" />
          </mxGeometry>
        </mxCell>
        <mxCell id="RB8xPHDvJfS-Jv2ElMEI-412" value="" style="shape=tableRow;horizontal=0;startSize=0;swimlaneHead=0;swimlaneBody=0;strokeColor=inherit;top=0;left=0;bottom=0;right=0;collapsible=0;dropTarget=0;fillColor=none;points=[[0,0.5],[1,0.5]];portConstraint=eastwest;" vertex="1" parent="RB8xPHDvJfS-Jv2ElMEI-407">
          <mxGeometry y="35" width="140" height="35" as="geometry" />
        </mxCell>
        <mxCell id="RB8xPHDvJfS-Jv2ElMEI-413" value="" style="shape=partialRectangle;html=1;whiteSpace=wrap;connectable=0;strokeColor=inherit;overflow=hidden;fillColor=none;top=0;left=0;bottom=0;right=0;pointerEvents=1;" vertex="1" parent="RB8xPHDvJfS-Jv2ElMEI-412">
          <mxGeometry width="46" height="35" as="geometry">
            <mxRectangle width="46" height="35" as="alternateBounds" />
          </mxGeometry>
        </mxCell>
        <mxCell id="RB8xPHDvJfS-Jv2ElMEI-414" value="&lt;span style=&quot;font-size: 18px;&quot;&gt;&lt;b&gt;O&lt;/b&gt;&lt;/span&gt;" style="shape=partialRectangle;html=1;whiteSpace=wrap;connectable=0;strokeColor=inherit;overflow=hidden;fillColor=none;top=0;left=0;bottom=0;right=0;pointerEvents=1;" vertex="1" parent="RB8xPHDvJfS-Jv2ElMEI-412">
          <mxGeometry x="46" width="48" height="35" as="geometry">
            <mxRectangle width="48" height="35" as="alternateBounds" />
          </mxGeometry>
        </mxCell>
        <mxCell id="RB8xPHDvJfS-Jv2ElMEI-415" value="" style="shape=partialRectangle;html=1;whiteSpace=wrap;connectable=0;strokeColor=inherit;overflow=hidden;fillColor=none;top=0;left=0;bottom=0;right=0;pointerEvents=1;" vertex="1" parent="RB8xPHDvJfS-Jv2ElMEI-412">
          <mxGeometry x="94" width="46" height="35" as="geometry">
            <mxRectangle width="46" height="35" as="alternateBounds" />
          </mxGeometry>
        </mxCell>
        <mxCell id="RB8xPHDvJfS-Jv2ElMEI-416" value="" style="shape=tableRow;horizontal=0;startSize=0;swimlaneHead=0;swimlaneBody=0;strokeColor=inherit;top=0;left=0;bottom=0;right=0;collapsible=0;dropTarget=0;fillColor=none;points=[[0,0.5],[1,0.5]];portConstraint=eastwest;" vertex="1" parent="RB8xPHDvJfS-Jv2ElMEI-407">
          <mxGeometry y="70" width="140" height="35" as="geometry" />
        </mxCell>
        <mxCell id="RB8xPHDvJfS-Jv2ElMEI-417" value="" style="shape=partialRectangle;html=1;whiteSpace=wrap;connectable=0;strokeColor=inherit;overflow=hidden;fillColor=none;top=0;left=0;bottom=0;right=0;pointerEvents=1;" vertex="1" parent="RB8xPHDvJfS-Jv2ElMEI-416">
          <mxGeometry width="46" height="35" as="geometry">
            <mxRectangle width="46" height="35" as="alternateBounds" />
          </mxGeometry>
        </mxCell>
        <mxCell id="RB8xPHDvJfS-Jv2ElMEI-418" value="" style="shape=partialRectangle;html=1;whiteSpace=wrap;connectable=0;strokeColor=inherit;overflow=hidden;fillColor=none;top=0;left=0;bottom=0;right=0;pointerEvents=1;" vertex="1" parent="RB8xPHDvJfS-Jv2ElMEI-416">
          <mxGeometry x="46" width="48" height="35" as="geometry">
            <mxRectangle width="48" height="35" as="alternateBounds" />
          </mxGeometry>
        </mxCell>
        <mxCell id="RB8xPHDvJfS-Jv2ElMEI-419" value="" style="shape=partialRectangle;html=1;whiteSpace=wrap;connectable=0;strokeColor=inherit;overflow=hidden;fillColor=none;top=0;left=0;bottom=0;right=0;pointerEvents=1;" vertex="1" parent="RB8xPHDvJfS-Jv2ElMEI-416">
          <mxGeometry x="94" width="46" height="35" as="geometry">
            <mxRectangle width="46" height="35" as="alternateBounds" />
          </mxGeometry>
        </mxCell>
        <mxCell id="RB8xPHDvJfS-Jv2ElMEI-420" value="" style="shape=tableRow;horizontal=0;startSize=0;swimlaneHead=0;swimlaneBody=0;strokeColor=inherit;top=0;left=0;bottom=0;right=0;collapsible=0;dropTarget=0;fillColor=none;points=[[0,0.5],[1,0.5]];portConstraint=eastwest;" vertex="1" parent="RB8xPHDvJfS-Jv2ElMEI-407">
          <mxGeometry y="105" width="140" height="35" as="geometry" />
        </mxCell>
        <mxCell id="RB8xPHDvJfS-Jv2ElMEI-421" value="" style="shape=partialRectangle;html=1;whiteSpace=wrap;connectable=0;strokeColor=#BD7000;overflow=hidden;fillColor=#f0a30a;top=0;left=0;bottom=0;right=0;pointerEvents=1;fontColor=#000000;" vertex="1" parent="RB8xPHDvJfS-Jv2ElMEI-420">
          <mxGeometry width="46" height="35" as="geometry">
            <mxRectangle width="46" height="35" as="alternateBounds" />
          </mxGeometry>
        </mxCell>
        <mxCell id="RB8xPHDvJfS-Jv2ElMEI-422" value="" style="shape=partialRectangle;html=1;whiteSpace=wrap;connectable=0;strokeColor=#BD7000;overflow=hidden;fillColor=#f0a30a;top=0;left=0;bottom=0;right=0;pointerEvents=1;fontColor=#000000;" vertex="1" parent="RB8xPHDvJfS-Jv2ElMEI-420">
          <mxGeometry x="46" width="48" height="35" as="geometry">
            <mxRectangle width="48" height="35" as="alternateBounds" />
          </mxGeometry>
        </mxCell>
        <mxCell id="RB8xPHDvJfS-Jv2ElMEI-423" value="" style="shape=partialRectangle;html=1;whiteSpace=wrap;connectable=0;strokeColor=#BD7000;overflow=hidden;fillColor=#f0a30a;top=0;left=0;bottom=0;right=0;pointerEvents=1;fontColor=#000000;" vertex="1" parent="RB8xPHDvJfS-Jv2ElMEI-420">
          <mxGeometry x="94" width="46" height="35" as="geometry">
            <mxRectangle width="46" height="35" as="alternateBounds" />
          </mxGeometry>
        </mxCell>
        <mxCell id="RB8xPHDvJfS-Jv2ElMEI-425" value="" style="endArrow=classic;html=1;rounded=0;exitX=0.802;exitY=1.012;exitDx=0;exitDy=0;exitPerimeter=0;" edge="1" parent="1">
          <mxGeometry width="50" height="50" relative="1" as="geometry">
            <mxPoint x="847" y="586" as="sourcePoint" />
            <mxPoint x="850" y="950" as="targetPoint" />
          </mxGeometry>
        </mxCell>
        <mxCell id="RB8xPHDvJfS-Jv2ElMEI-426" value="" style="endArrow=classic;html=1;rounded=0;exitX=0.802;exitY=1.012;exitDx=0;exitDy=0;exitPerimeter=0;" edge="1" parent="1">
          <mxGeometry width="50" height="50" relative="1" as="geometry">
            <mxPoint x="1010" y="586" as="sourcePoint" />
            <mxPoint x="1013" y="950" as="targetPoint" />
          </mxGeometry>
        </mxCell>
        <mxCell id="RB8xPHDvJfS-Jv2ElMEI-429" value="" style="endArrow=none;html=1;strokeWidth=5;rounded=0;exitX=0;exitY=0.5;exitDx=0;exitDy=0;entryX=1;entryY=0.5;entryDx=0;entryDy=0;dashed=1;" edge="1" parent="1">
          <mxGeometry width="50" height="50" relative="1" as="geometry">
            <mxPoint x="240" y="887" as="sourcePoint" />
            <mxPoint x="1770" y="887" as="targetPoint" />
          </mxGeometry>
        </mxCell>
        <mxCell id="RB8xPHDvJfS-Jv2ElMEI-434" value="&lt;b&gt;&lt;font style=&quot;font-size: 29px;&quot;&gt;prefill stage&lt;/font&gt;&lt;/b&gt;" style="text;html=1;align=center;verticalAlign=middle;whiteSpace=wrap;rounded=0;" vertex="1" parent="1">
          <mxGeometry x="1530" y="440" width="220" height="30" as="geometry" />
        </mxCell>
        <mxCell id="RB8xPHDvJfS-Jv2ElMEI-435" value="&lt;b&gt;&lt;font style=&quot;font-size: 29px;&quot;&gt;decode stage&lt;/font&gt;&lt;/b&gt;" style="text;html=1;align=center;verticalAlign=middle;whiteSpace=wrap;rounded=0;" vertex="1" parent="1">
          <mxGeometry x="1540" y="910" width="220" height="30" as="geometry" />
        </mxCell>
        <mxCell id="RB8xPHDvJfS-Jv2ElMEI-436" value="" style="endArrow=classic;html=1;rounded=0;dashed=1;" edge="1" parent="1">
          <mxGeometry width="50" height="50" relative="1" as="geometry">
            <mxPoint x="1620" y="1029.4099999999999" as="sourcePoint" />
            <mxPoint x="1690" y="1029.4099999999999" as="targetPoint" />
          </mxGeometry>
        </mxCell>
        <mxCell id="RB8xPHDvJfS-Jv2ElMEI-437" value="&lt;b&gt;OK&lt;/b&gt;" style="text;html=1;align=center;verticalAlign=middle;whiteSpace=wrap;rounded=0;" vertex="1" parent="1">
          <mxGeometry x="1670" y="1012.5" width="70" height="35" as="geometry" />
        </mxCell>
      </root>
    </mxGraphModel>
  </diagram>
</mxfile>
